<svg class="railroad-diagram" height="71" viewBox="0 0 367.5 71" width="367.5" xmlns="http://www.w3.org/2000/svg" xmlns:xlink="http://www.w3.org/1999/xlink">
<g transform="translate(.5 .5)">
<style>/* <![CDATA[ */

	svg.railroad-diagram {
		background-color: rgba(255,255,0, 0);
	}
	svg.railroad-diagram path {
		stroke-width:3;
		stroke:black;
		fill:rgba(0,0,0,0);
	}
	svg.railroad-diagram text {
		eeefont:bold 14px sans; 
		font-family: sans;
		text-anchor:middle;
                fill: black; /* color of text */
	}
	svg.railroad-diagram .labelname {
		font-family: sans;
		text-anchor:middle;
		stroke-width: 0
                fill: red; /* color of text */
	}

	svg.railroad-diagram text.label{
		text-anchor:start;
	}
	svg.railroad-diagram text.comment{
		eeefont:italic 12px monospace;
		font-family: sans;
		font-style: italic;
	}
        svg.railroad-diagram .nterm { /* defines non-terminals */
		stroke-width:3;
		stroke:black; /* used for outline AND font, so without it the text looks OK but not the form...*/
		fill: rgb(181,232,247);
	}
        svg.railroad-diagram .term { /* defines terminals */
		stroke-width:3;
		stroke:black; /* used for outline AND font, so without it the text looks OK but not the form...*/
		fill: rgb(217,194,240);
	}

	svg.railroad-diagram rect.group-box {
		stroke: gray;
		stroke-dasharray: 10 5;
		fill: none;
	}

/* ]]> */
</style><g>
<path d="M20 21v20m10 -20v20m-10 -10h20"></path></g><g>
<path d="M40 31h0.0"></path><path d="M327.5 31h0.0"></path><path d="M40.0 31h20"></path><g>
<path d="M60.0 31h0.0"></path><path d="M307.5 31h0.0"></path><g class="terminal ">
<path d="M60.0 31h0.0"></path><path d="M105.5 31h0.0"></path><rect class="term" height="22" rx="10" ry="10" width="45.5" x="60.0" y="20"></rect><text x="82.75" y="35">'"'</text></g><path d="M105.5 31h10"></path><path d="M115.5 31h10"></path><g>
<path d="M125.5 31h0.0"></path><path d="M242.0 31h0.0"></path><path d="M125.5 31h10"></path><g>
<path d="M135.5 31h0.0"></path><path d="M232.0 31h0.0"></path><g class="non-terminal ">
<path d="M135.5 31h0.0"></path><path d="M166.5 31h0.0"></path><text class="comment" x="151.0" y="36">not</text></g><path d="M166.5 31h10"></path><path d="M176.5 31h10"></path><g class="terminal ">
<path d="M186.5 31h0.0"></path><path d="M232.0 31h0.0"></path><rect class="term" height="22" rx="10" ry="10" width="45.5" x="186.5" y="20"></rect><text x="209.25" y="35">&#91;"&#93;</text></g></g><path d="M232.0 31h10"></path><path d="M135.5 31a10 10 0 0 0 -10 10v0a10 10 0 0 0 10 10"></path><g>
<path d="M135.5 51h96.5"></path></g><path d="M232.0 51a10 10 0 0 0 10 -10v0a10 10 0 0 0 -10 -10"></path></g><path d="M242.0 31h10"></path><path d="M252.0 31h10"></path><g class="terminal ">
<path d="M262.0 31h0.0"></path><path d="M307.5 31h0.0"></path><rect class="term" height="22" rx="10" ry="10" width="45.5" x="262.0" y="20"></rect><text x="284.75" y="35">'"'</text></g></g><path d="M307.5 31h20"></path></g><path d="M 327.5 31 h 20 m -10 -10 v 20 m 10 -20 v 20"></path></g></svg>