<svg class="railroad-diagram" height="304" viewBox="0 0 380.5 304" width="380.5" xmlns="http://www.w3.org/2000/svg" xmlns:xlink="http://www.w3.org/1999/xlink">
<g transform="translate(.5 .5)">
<style>/* <![CDATA[ */

	svg.railroad-diagram {
		background-color: rgba(255, 255, 255, 0); /* transparent white*/
	}
	svg.railroad-diagram path {
		stroke-width:3;
		stroke:black;
		fill: rgba(0,0,0,0);
	}
	svg.railroad-diagram text {
		/* font:bold 14px sans; */
		font-family: sans;
		text-anchor:middle;
    	fill: black; /* color of text */
	}
	svg.railroad-diagram .labelname{
		font-family: sans;
		text-anchor:middle;
		stroke-width: 0
        fill: red; /* color of text */
	}

	svg.railroad-diagram text.label{
		text-anchor:start;
	}

	svg.railroad-diagram text.comment{
		/* font:italic 12px monospace;*/
		font-family: sans;
		font-style: italic;
	}

    svg.railroad-diagram .nterm { /* defines non-terminals */
		stroke-width:3;
		stroke:black;
		fill: rgb(181,232,247);
	}

    svg.railroad-diagram .term { /* defines terminals */
		stroke-width:3;
		stroke:black;
		fill: rgb(217,194,240);
	}

	svg.railroad-diagram rect.group-box {
		stroke: gray;
		stroke-dasharray: 10 5;
		fill: none;
	}

/* ]]> */
</style><g>
<path d="M20 22v20m10 -20v20m-10 -10h20"></path></g><g>
<path d="M40 32h0.0"></path><path d="M340.5 32h0.0"></path><path d="M40.0 32h20"></path><g>
<path d="M60.0 32h91.75"></path><path d="M228.75 32h91.75"></path><g class="terminal ">
<path d="M151.75 32h0.0"></path><path d="M228.75 32h0.0"></path><rect class="term" height="24" width="77.0" x="151.75" y="21"></rect><text x="190.25" y="37">'Form'</text></g></g><path d="M320.5 32h20"></path><path d="M40.0 32a10 10 0 0 1 10 10v12a10 10 0 0 0 10 10"></path><g>
<path d="M60.0 64h87.0"></path><path d="M233.5 64h87.0"></path><g class="terminal ">
<path d="M147.0 64h0.0"></path><path d="M233.5 64h0.0"></path><rect class="term" height="24" width="86.5" x="147.0" y="53"></rect><text x="190.25" y="69">'Lemma'</text></g></g><path d="M320.5 64a10 10 0 0 0 10 -10v-12a10 10 0 0 1 10 -10"></path><path d="M40.0 32a10 10 0 0 1 10 10v44a10 10 0 0 0 10 10"></path><g>
<path d="M60.0 96h91.75"></path><path d="M228.75 96h91.75"></path><g class="terminal ">
<path d="M151.75 96h0.0"></path><path d="M228.75 96h0.0"></path><rect class="term" height="24" width="77.0" x="151.75" y="85"></rect><text x="190.25" y="101">'Upos'</text></g></g><path d="M320.5 96a10 10 0 0 0 10 -10v-44a10 10 0 0 1 10 -10"></path><path d="M40.0 32a10 10 0 0 1 10 10v76a10 10 0 0 0 10 10"></path><g>
<path d="M60.0 128h91.75"></path><path d="M228.75 128h91.75"></path><g class="terminal ">
<path d="M151.75 128h0.0"></path><path d="M228.75 128h0.0"></path><rect class="term" height="24" width="77.0" x="151.75" y="117"></rect><text x="190.25" y="133">'Xpos'</text></g></g><path d="M320.5 128a10 10 0 0 0 10 -10v-76a10 10 0 0 1 10 -10"></path><path d="M40.0 32a10 10 0 0 1 10 10v108a10 10 0 0 0 10 10"></path><g>
<path d="M60.0 160h0.0"></path><path d="M320.5 160h0.0"></path><g class="terminal ">
<path d="M60.0 160h0.0"></path><path d="M146.5 160h0.0"></path><rect class="term" height="24" width="86.5" x="60.0" y="149"></rect><text x="103.25" y="165">'Feat&#95;'</text></g><path d="M146.5 160h10"></path><path d="M156.5 160h10"></path><g>
<path d="M166.5 160h0.0"></path><path d="M320.5 160h0.0"></path><path d="M166.5 160h10"></path><g class="terminal ">
<path d="M176.5 160h0.0"></path><path d="M310.5 160h0.0"></path><rect class="term" height="24" width="134.0" x="176.5" y="149"></rect><text x="243.5" y="165">&#91;A-Za-z0-9&#95;&#93;</text></g><path d="M310.5 160h10"></path><path d="M176.5 160a10 10 0 0 0 -10 10v0a10 10 0 0 0 10 10"></path><g>
<path d="M176.5 180h134.0"></path></g><path d="M310.5 180a10 10 0 0 0 10 -10v0a10 10 0 0 0 -10 -10"></path></g></g><path d="M320.5 160a10 10 0 0 0 10 -10v-108a10 10 0 0 1 10 -10"></path><path d="M40.0 32a10 10 0 0 1 10 10v148a10 10 0 0 0 10 10"></path><g>
<path d="M60.0 200h82.25"></path><path d="M238.25 200h82.25"></path><g class="terminal ">
<path d="M142.25 200h0.0"></path><path d="M238.25 200h0.0"></path><rect class="term" height="24" width="96.0" x="142.25" y="189"></rect><text x="190.25" y="205">'Deprel'</text></g></g><path d="M320.5 200a10 10 0 0 0 10 -10v-148a10 10 0 0 1 10 -10"></path><path d="M40.0 32a10 10 0 0 1 10 10v180a10 10 0 0 0 10 10"></path><g>
<path d="M60.0 232h12.5"></path><path d="M308.0 232h12.5"></path><g class="terminal ">
<path d="M72.5 232h0.0"></path><path d="M159.0 232h0.0"></path><rect class="term" height="24" width="86.5" x="72.5" y="221"></rect><text x="115.75" y="237">'Misc&#95;'</text></g><path d="M159.0 232h10"></path><path d="M169.0 232h10"></path><g>
<path d="M179.0 232h0.0"></path><path d="M308.0 232h0.0"></path><path d="M179.0 232h10"></path><g>
<path d="M189.0 232h0.0"></path><path d="M298.0 232h0.0"></path><g class="non-terminal ">
<path d="M189.0 232h0.0"></path><path d="M220.0 232h0.0"></path><text class="comment" x="204.5" y="237">not</text></g><path d="M220.0 232h10"></path><path d="M230.0 232h10"></path><g class="terminal ">
<path d="M240.0 232h0.0"></path><path d="M298.0 232h0.0"></path><rect class="term" height="24" width="58.0" x="240.0" y="221"></rect><text x="269.0" y="237">&#91;")&#93;</text></g></g><path d="M298.0 232h10"></path><path d="M189.0 232a10 10 0 0 0 -10 10v0a10 10 0 0 0 10 10"></path><g>
<path d="M189.0 252h109.0"></path></g><path d="M298.0 252a10 10 0 0 0 10 -10v0a10 10 0 0 0 -10 -10"></path></g></g><path d="M320.5 232a10 10 0 0 0 10 -10v-180a10 10 0 0 1 10 -10"></path><path d="M40.0 32a10 10 0 0 1 10 10v220a10 10 0 0 0 10 10"></path><g>
<path d="M60.0 272h82.25"></path><path d="M238.25 272h82.25"></path><g class="terminal ">
<path d="M142.25 272h0.0"></path><path d="M238.25 272h0.0"></path><rect class="term" height="24" width="96.0" x="142.25" y="261"></rect><text x="190.25" y="277">'HeadId'</text></g></g><path d="M320.5 272a10 10 0 0 0 10 -10v-220a10 10 0 0 1 10 -10"></path></g><path d="M 340.5 32 h 20 m -10 -10 v 20 m 10 -20 v 20"></path></g></svg>