<svg class="railroad-diagram" height="96" viewBox="0 0 660.5 96" width="660.5" xmlns="http://www.w3.org/2000/svg" xmlns:xlink="http://www.w3.org/1999/xlink">
<g transform="translate(.5 .5)">
<style>/* <![CDATA[ */

	svg.railroad-diagram {
		background-color: rgba(255, 255, 255, 0); /* transparent white*/
	}
	svg.railroad-diagram path {
		stroke-width:3;
		stroke:black;
		fill: rgba(0,0,0,0);
	}
	svg.railroad-diagram text {
		/* font:bold 14px sans; */
		font-family: sans;
		text-anchor:middle;
    	fill: black; /* color of text */
	}
	svg.railroad-diagram .labelname{
		font-family: sans;
		text-anchor:middle;
		stroke-width: 0
        fill: red; /* color of text */
	}

	svg.railroad-diagram text.label{
		text-anchor:start;
	}

	svg.railroad-diagram text.comment{
		/* font:italic 12px monospace;*/
		font-family: sans;
		font-style: italic;
	}

    svg.railroad-diagram .nterm { /* defines non-terminals */
		stroke-width:3;
		stroke:black;
		fill: rgb(181,232,247);
	}

    svg.railroad-diagram .term { /* defines terminals */
		stroke-width:3;
		stroke:black;
		fill: rgb(217,194,240);
	}

	svg.railroad-diagram rect.group-box {
		stroke: gray;
		stroke-dasharray: 10 5;
		fill: none;
	}

/* ]]> */
</style><g>
<path d="M20 38v20m10 -20v20m-10 -10h20"></path></g><g>
<path d="M40 48h0.0"></path><path d="M620.5 48h0.0"></path><path d="M40.0 48h20"></path><g>
<path d="M60.0 48h0.0"></path><path d="M600.5 48h0.0"></path><g class="non-terminal ">
<path d="M60.0 48h0.0"></path><path d="M127.5 48h0.0"></path><rect class="nterm" height="22" rx="10" ry="10" width="67.5" x="60.0" y="37"></rect><text x="93.75" y="52">token</text></g><path d="M127.5 48h10"></path><g>
<path d="M137.5 48h0.0"></path><path d="M600.5 48h0.0"></path><path d="M137.5 48a10 10 0 0 0 10 -10v-8a10 10 0 0 1 10 -10"></path><g>
<path d="M157.5 20h423.0"></path></g><path d="M580.5 20a10 10 0 0 1 10 10v8a10 10 0 0 0 10 10"></path><path d="M137.5 48h20"></path><g>
<path d="M157.5 48h0.0"></path><path d="M580.5 48h0.0"></path><path d="M157.5 48h10"></path><g>
<path d="M167.5 48h0.0"></path><path d="M570.5 48h0.0"></path><path d="M167.5 48h20"></path><g>
<path d="M187.5 48h0.0"></path><path d="M550.5 48h0.0"></path><g>
<path d="M187.5 48h0.0"></path><path d="M296.0 48h0.0"></path><path d="M187.5 48a10 10 0 0 0 10 -10v0a10 10 0 0 1 10 -10"></path><g>
<path d="M207.5 28h68.5"></path></g><path d="M276.0 28a10 10 0 0 1 10 10v0a10 10 0 0 0 10 10"></path><path d="M187.5 48h20"></path><g>
<path d="M207.5 48h0.0"></path><path d="M276.0 48h0.0"></path><path d="M207.5 48h10"></path><g class="terminal ">
<path d="M217.5 48h0.0"></path><path d="M266.0 48h0.0"></path><rect class="term" height="24" width="48.5" x="217.5" y="37"></rect><text x="241.75" y="53">'␣'</text></g><path d="M266.0 48h10"></path><path d="M217.5 48a10 10 0 0 0 -10 10v0a10 10 0 0 0 10 10"></path><g>
<path d="M217.5 68h48.5"></path></g><path d="M266.0 68a10 10 0 0 0 10 -10v0a10 10 0 0 0 -10 -10"></path></g><path d="M276.0 48h20"></path></g><path d="M296.0 48h10"></path><g class="terminal ">
<path d="M306.0 48h0.0"></path><path d="M354.5 48h0.0"></path><rect class="term" height="24" width="48.5" x="306.0" y="37"></rect><text x="330.25" y="53">'+'</text></g><path d="M354.5 48h10"></path><g>
<path d="M364.5 48h0.0"></path><path d="M473.0 48h0.0"></path><path d="M364.5 48a10 10 0 0 0 10 -10v0a10 10 0 0 1 10 -10"></path><g>
<path d="M384.5 28h68.5"></path></g><path d="M453.0 28a10 10 0 0 1 10 10v0a10 10 0 0 0 10 10"></path><path d="M364.5 48h20"></path><g>
<path d="M384.5 48h0.0"></path><path d="M453.0 48h0.0"></path><path d="M384.5 48h10"></path><g class="terminal ">
<path d="M394.5 48h0.0"></path><path d="M443.0 48h0.0"></path><rect class="term" height="24" width="48.5" x="394.5" y="37"></rect><text x="418.75" y="53">'␣'</text></g><path d="M443.0 48h10"></path><path d="M394.5 48a10 10 0 0 0 -10 10v0a10 10 0 0 0 10 10"></path><g>
<path d="M394.5 68h48.5"></path></g><path d="M443.0 68a10 10 0 0 0 10 -10v0a10 10 0 0 0 -10 -10"></path></g><path d="M453.0 48h20"></path></g><path d="M473.0 48h10"></path><g class="non-terminal ">
<path d="M483.0 48h0.0"></path><path d="M550.5 48h0.0"></path><rect class="nterm" height="22" rx="10" ry="10" width="67.5" x="483.0" y="37"></rect><text x="516.75" y="52">token</text></g></g><path d="M550.5 48h20"></path></g><path d="M570.5 48h10"></path><path d="M167.5 48a10 10 0 0 0 -10 10v8a10 10 0 0 0 10 10"></path><g>
<path d="M167.5 76h403.0"></path></g><path d="M570.5 76a10 10 0 0 0 10 -10v-8a10 10 0 0 0 -10 -10"></path></g><path d="M580.5 48h20"></path></g></g><path d="M600.5 48h20"></path></g><path d="M 620.5 48 h 20 m -10 -10 v 20 m 10 -20 v 20"></path></g></svg>