<svg class="railroad-diagram" height="96" viewBox="0 0 459.5 96" width="459.5" xmlns="http://www.w3.org/2000/svg" xmlns:xlink="http://www.w3.org/1999/xlink">
<g transform="translate(.5 .5)">
<style>/* <![CDATA[ */

	svg.railroad-diagram {
		background-color: rgba(255, 255, 255, 0); /* transparent white*/
	}
	svg.railroad-diagram path {
		stroke-width:3;
		stroke:black;
		fill: rgba(0,0,0,0);
	}
	svg.railroad-diagram text {
		/* font:bold 14px sans; */
		font-family: sans;
		text-anchor:middle;
    	fill: black; /* color of text */
	}
	svg.railroad-diagram .labelname{
		font-family: sans;
		text-anchor:middle;
		stroke-width: 0
        fill: red; /* color of text */
	}

	svg.railroad-diagram text.label{
		text-anchor:start;
	}

	svg.railroad-diagram text.comment{
		/* font:italic 12px monospace;*/
		font-family: sans;
		font-style: italic;
	}

    svg.railroad-diagram .nterm { /* defines non-terminals */
		stroke-width:3;
		stroke:black;
		fill: rgb(181,232,247);
	}

    svg.railroad-diagram .term { /* defines terminals */
		stroke-width:3;
		stroke:black;
		fill: rgb(217,194,240);
	}

	svg.railroad-diagram rect.group-box {
		stroke: gray;
		stroke-dasharray: 10 5;
		fill: none;
	}

/* ]]> */
</style><g>
<path d="M20 22v20m10 -20v20m-10 -10h20"></path></g><g>
<path d="M40 32h0.0"></path><path d="M419.5 32h0.0"></path><path d="M40.0 32h20"></path><g>
<path d="M60.0 32h0.0"></path><path d="M399.5 32h0.0"></path><g class="terminal ">
<path d="M60.0 32h0.0"></path><path d="M137.0 32h0.0"></path><rect class="term" height="24" width="77.0" x="60.0" y="21"></rect><text x="98.5" y="37">HEADKW</text></g><path d="M137.0 32h10"></path><path d="M147.0 32h10"></path><g class="terminal ">
<path d="M157.0 32h0.0"></path><path d="M215.0 32h0.0"></path><rect class="term" height="24" width="58.0" x="157.0" y="21"></rect><text x="186.0" y="37">OPEN</text></g><path d="M215.0 32h10"></path><path d="M225.0 32h10"></path><g class="terminal ">
<path d="M235.0 32h0.0"></path><path d="M312.0 32h0.0"></path><rect class="term" height="24" width="77.0" x="235.0" y="21"></rect><text x="273.5" y="37">COLUMN</text></g><path d="M312.0 32h10"></path><path d="M322.0 32h10"></path><g class="terminal ">
<path d="M332.0 32h0.0"></path><path d="M399.5 32h0.0"></path><rect class="term" height="24" width="67.5" x="332.0" y="21"></rect><text x="365.75" y="37">CLOSE</text></g></g><path d="M399.5 32h20"></path><path d="M40.0 32a10 10 0 0 1 10 10v12a10 10 0 0 0 10 10"></path><g>
<path d="M60.0 64h9.5"></path><path d="M390.0 64h9.5"></path><g class="terminal ">
<path d="M69.5 64h0.0"></path><path d="M146.5 64h0.0"></path><rect class="term" height="24" width="77.0" x="69.5" y="53"></rect><text x="108.0" y="69">HEADKW</text></g><path d="M146.5 64h10"></path><path d="M156.5 64h10"></path><g class="terminal ">
<path d="M166.5 64h0.0"></path><path d="M224.5 64h0.0"></path><rect class="term" height="24" width="58.0" x="166.5" y="53"></rect><text x="195.5" y="69">OPEN</text></g><path d="M224.5 64h10"></path><path d="M234.5 64h10"></path><g class="non-terminal ">
<path d="M244.5 64h0.0"></path><path d="M302.5 64h0.0"></path><rect class="nterm" height="22" rx="10" ry="10" width="58.0" x="244.5" y="53"></rect><text x="273.5" y="68">head</text></g><path d="M302.5 64h10"></path><path d="M312.5 64h10"></path><g class="terminal ">
<path d="M322.5 64h0.0"></path><path d="M390.0 64h0.0"></path><rect class="term" height="24" width="67.5" x="322.5" y="53"></rect><text x="356.25" y="69">CLOSE</text></g></g><path d="M399.5 64a10 10 0 0 0 10 -10v-12a10 10 0 0 1 10 -10"></path></g><path d="M 419.5 32 h 20 m -10 -10 v 20 m 10 -20 v 20"></path></g></svg>