<svg class="railroad-diagram" height="292" viewBox="0 0 888.5 292" width="888.5" xmlns="http://www.w3.org/2000/svg" xmlns:xlink="http://www.w3.org/1999/xlink">
<g transform="translate(.5 .5)">
<style>/* <![CDATA[ */

	svg.railroad-diagram {
		background-color: rgba(255, 255, 255, 0); /* transparent white*/
	}
	svg.railroad-diagram path {
		stroke-width:3;
		stroke:black;
		fill: rgba(0,0,0,0);
	}
	svg.railroad-diagram text {
		/* font:bold 14px sans; */
		font-family: sans;
		text-anchor:middle;
    	fill: black; /* color of text */
	}
	svg.railroad-diagram .labelname{
		font-family: sans;
		text-anchor:middle;
		stroke-width: 0
        fill: red; /* color of text */
	}

	svg.railroad-diagram text.label{
		text-anchor:start;
	}

	svg.railroad-diagram text.comment{
		/* font:italic 12px monospace;*/
		font-family: sans;
		font-style: italic;
	}

    svg.railroad-diagram .nterm { /* defines non-terminals */
		stroke-width:3;
		stroke:black;
		fill: rgb(181,232,247);
	}

    svg.railroad-diagram .term { /* defines terminals */
		stroke-width:3;
		stroke:black;
		fill: rgb(217,194,240);
	}

	svg.railroad-diagram rect.group-box {
		stroke: gray;
		stroke-dasharray: 10 5;
		fill: none;
	}

/* ]]> */
</style><g>
<path d="M20 22v20m10 -20v20m-10 -10h20"></path></g><g>
<path d="M40 32h0.0"></path><path d="M848.5 32h0.0"></path><path d="M40.0 32h20"></path><g>
<path d="M60.0 32h224.0"></path><path d="M604.5 32h224.0"></path><g class="terminal ">
<path d="M284.0 32h0.0"></path><path d="M342.0 32h0.0"></path><rect class="term" height="24" width="58.0" x="284.0" y="21"></rect><text x="313.0" y="37">THIS</text></g><path d="M342.0 32h10"></path><path d="M352.0 32h10"></path><g class="terminal ">
<path d="M362.0 32h0.0"></path><path d="M420.0 32h0.0"></path><rect class="term" height="24" width="58.0" x="362.0" y="21"></rect><text x="391.0" y="37">OPEN</text></g><path d="M420.0 32h10"></path><path d="M430.0 32h10"></path><g class="terminal ">
<path d="M440.0 32h0.0"></path><path d="M517.0 32h0.0"></path><rect class="term" height="24" width="77.0" x="440.0" y="21"></rect><text x="478.5" y="37">COLUMN</text></g><path d="M517.0 32h10"></path><path d="M527.0 32h10"></path><g class="terminal ">
<path d="M537.0 32h0.0"></path><path d="M604.5 32h0.0"></path><rect class="term" height="24" width="67.5" x="537.0" y="21"></rect><text x="570.75" y="37">CLOSE</text></g></g><path d="M828.5 32h20"></path><path d="M40.0 32a10 10 0 0 1 10 10v11a10 10 0 0 0 10 10"></path><g>
<path d="M60.0 63h355.25"></path><path d="M473.25 63h355.25"></path><g class="non-terminal ">
<path d="M415.25 63h0.0"></path><path d="M473.25 63h0.0"></path><rect class="nterm" height="22" rx="10" ry="10" width="58.0" x="415.25" y="52"></rect><text x="444.25" y="67">head</text></g></g><path d="M828.5 63a10 10 0 0 0 10 -10v-11a10 10 0 0 1 10 -10"></path><path d="M40.0 32a10 10 0 0 1 10 10v41a10 10 0 0 0 10 10"></path><g>
<path d="M60.0 93h350.5"></path><path d="M478.0 93h350.5"></path><g class="non-terminal ">
<path d="M410.5 93h0.0"></path><path d="M478.0 93h0.0"></path><rect class="nterm" height="22" rx="10" ry="10" width="67.5" x="410.5" y="82"></rect><text x="444.25" y="97">value</text></g></g><path d="M828.5 93a10 10 0 0 0 10 -10v-41a10 10 0 0 1 10 -10"></path><path d="M40.0 32a10 10 0 0 1 10 10v80a10 10 0 0 0 10 10"></path><g>
<path d="M60.0 132h0.0"></path><path d="M828.5 132h0.0"></path><g class="terminal ">
<path d="M60.0 132h0.0"></path><path d="M184.5 132h0.0"></path><rect class="term" height="24" width="124.5" x="60.0" y="121"></rect><text x="122.25" y="137">'substring'</text></g><path d="M184.5 132h10"></path><path d="M194.5 132h10"></path><g class="terminal ">
<path d="M204.5 132h0.0"></path><path d="M262.5 132h0.0"></path><rect class="term" height="24" width="58.0" x="204.5" y="121"></rect><text x="233.5" y="137">OPEN</text></g><path d="M262.5 132h10"></path><path d="M272.5 132h10"></path><g class="non-terminal ">
<path d="M282.5 132h0.0"></path><path d="M350.0 132h0.0"></path><rect class="nterm" height="22" rx="10" ry="10" width="67.5" x="282.5" y="121"></rect><text x="316.25" y="136">token</text></g><path d="M350.0 132h10"></path><path d="M360.0 132h10"></path><g class="terminal ">
<path d="M370.0 132h0.0"></path><path d="M418.5 132h0.0"></path><rect class="term" height="24" width="48.5" x="370.0" y="121"></rect><text x="394.25" y="137">','</text></g><path d="M418.5 132h10"></path><path d="M428.5 132h10"></path><g class="terminal ">
<path d="M438.5 132h0.0"></path><path d="M515.5 132h0.0"></path><rect class="term" height="24" width="77.0" x="438.5" y="121"></rect><text x="477.0" y="137">NUMBER</text></g><path d="M515.5 132h10"></path><g>
<path d="M525.5 132h0.0"></path><path d="M751.0 132h0.0"></path><path d="M525.5 132a10 10 0 0 0 10 -10v0a10 10 0 0 1 10 -10"></path><g>
<path d="M545.5 112h185.5"></path></g><path d="M731.0 112a10 10 0 0 1 10 10v0a10 10 0 0 0 10 10"></path><path d="M525.5 132h20"></path><g>
<path d="M545.5 132h0.0"></path><path d="M731.0 132h0.0"></path><path d="M545.5 132h20"></path><g>
<path d="M565.5 132h0.0"></path><path d="M711.0 132h0.0"></path><g class="terminal ">
<path d="M565.5 132h0.0"></path><path d="M614.0 132h0.0"></path><rect class="term" height="24" width="48.5" x="565.5" y="121"></rect><text x="589.75" y="137">','</text></g><path d="M614.0 132h10"></path><path d="M624.0 132h10"></path><g class="terminal ">
<path d="M634.0 132h0.0"></path><path d="M711.0 132h0.0"></path><rect class="term" height="24" width="77.0" x="634.0" y="121"></rect><text x="672.5" y="137">NUMBER</text></g></g><path d="M711.0 132h20"></path></g><path d="M731.0 132h20"></path></g><path d="M751.0 132h10"></path><g class="terminal ">
<path d="M761.0 132h0.0"></path><path d="M828.5 132h0.0"></path><rect class="term" height="24" width="67.5" x="761.0" y="121"></rect><text x="794.75" y="137">CLOSE</text></g></g><path d="M828.5 132a10 10 0 0 0 10 -10v-80a10 10 0 0 1 10 -10"></path><path d="M40.0 32a10 10 0 0 1 10 10v112a10 10 0 0 0 10 10"></path><g>
<path d="M60.0 164h49.0"></path><path d="M779.5 164h49.0"></path><g class="terminal ">
<path d="M109.0 164h0.0"></path><path d="M214.5 164h0.0"></path><rect class="term" height="24" width="105.5" x="109.0" y="153"></rect><text x="161.75" y="169">'replace'</text></g><path d="M214.5 164h10"></path><path d="M224.5 164h10"></path><g class="terminal ">
<path d="M234.5 164h0.0"></path><path d="M292.5 164h0.0"></path><rect class="term" height="24" width="58.0" x="234.5" y="153"></rect><text x="263.5" y="169">OPEN</text></g><path d="M292.5 164h10"></path><path d="M302.5 164h10"></path><g class="non-terminal ">
<path d="M312.5 164h0.0"></path><path d="M380.0 164h0.0"></path><rect class="nterm" height="22" rx="10" ry="10" width="67.5" x="312.5" y="153"></rect><text x="346.25" y="168">token</text></g><path d="M380.0 164h10"></path><path d="M390.0 164h10"></path><g class="terminal ">
<path d="M400.0 164h0.0"></path><path d="M448.5 164h0.0"></path><rect class="term" height="24" width="48.5" x="400.0" y="153"></rect><text x="424.25" y="169">','</text></g><path d="M448.5 164h10"></path><path d="M458.5 164h10"></path><g class="non-terminal ">
<path d="M468.5 164h0.0"></path><path d="M536.0 164h0.0"></path><rect class="nterm" height="22" rx="10" ry="10" width="67.5" x="468.5" y="153"></rect><text x="502.25" y="168">value</text></g><path d="M536.0 164h10"></path><path d="M546.0 164h10"></path><g class="terminal ">
<path d="M556.0 164h0.0"></path><path d="M604.5 164h0.0"></path><rect class="term" height="24" width="48.5" x="556.0" y="153"></rect><text x="580.25" y="169">','</text></g><path d="M604.5 164h10"></path><path d="M614.5 164h10"></path><g class="non-terminal ">
<path d="M624.5 164h0.0"></path><path d="M692.0 164h0.0"></path><rect class="nterm" height="22" rx="10" ry="10" width="67.5" x="624.5" y="153"></rect><text x="658.25" y="168">value</text></g><path d="M692.0 164h10"></path><path d="M702.0 164h10"></path><g class="terminal ">
<path d="M712.0 164h0.0"></path><path d="M779.5 164h0.0"></path><rect class="term" height="24" width="67.5" x="712.0" y="153"></rect><text x="745.75" y="169">CLOSE</text></g></g><path d="M828.5 164a10 10 0 0 0 10 -10v-112a10 10 0 0 1 10 -10"></path><path d="M40.0 32a10 10 0 0 1 10 10v144a10 10 0 0 0 10 10"></path><g>
<path d="M60.0 196h224.0"></path><path d="M604.5 196h224.0"></path><g class="terminal ">
<path d="M284.0 196h0.0"></path><path d="M351.5 196h0.0"></path><rect class="term" height="24" width="67.5" x="284.0" y="185"></rect><text x="317.75" y="201">'cap'</text></g><path d="M351.5 196h10"></path><path d="M361.5 196h10"></path><g class="terminal ">
<path d="M371.5 196h0.0"></path><path d="M429.5 196h0.0"></path><rect class="term" height="24" width="58.0" x="371.5" y="185"></rect><text x="400.5" y="201">OPEN</text></g><path d="M429.5 196h10"></path><path d="M439.5 196h10"></path><g class="non-terminal ">
<path d="M449.5 196h0.0"></path><path d="M517.0 196h0.0"></path><rect class="nterm" height="22" rx="10" ry="10" width="67.5" x="449.5" y="185"></rect><text x="483.25" y="200">token</text></g><path d="M517.0 196h10"></path><path d="M527.0 196h10"></path><g class="terminal ">
<path d="M537.0 196h0.0"></path><path d="M604.5 196h0.0"></path><rect class="term" height="24" width="67.5" x="537.0" y="185"></rect><text x="570.75" y="201">CLOSE</text></g></g><path d="M828.5 196a10 10 0 0 0 10 -10v-144a10 10 0 0 1 10 -10"></path><path d="M40.0 32a10 10 0 0 1 10 10v176a10 10 0 0 0 10 10"></path><g>
<path d="M60.0 228h214.5"></path><path d="M614.0 228h214.5"></path><g class="terminal ">
<path d="M274.5 228h0.0"></path><path d="M361.0 228h0.0"></path><rect class="term" height="24" width="86.5" x="274.5" y="217"></rect><text x="317.75" y="233">'upper'</text></g><path d="M361.0 228h10"></path><path d="M371.0 228h10"></path><g class="terminal ">
<path d="M381.0 228h0.0"></path><path d="M439.0 228h0.0"></path><rect class="term" height="24" width="58.0" x="381.0" y="217"></rect><text x="410.0" y="233">OPEN</text></g><path d="M439.0 228h10"></path><path d="M449.0 228h10"></path><g class="non-terminal ">
<path d="M459.0 228h0.0"></path><path d="M526.5 228h0.0"></path><rect class="nterm" height="22" rx="10" ry="10" width="67.5" x="459.0" y="217"></rect><text x="492.75" y="232">token</text></g><path d="M526.5 228h10"></path><path d="M536.5 228h10"></path><g class="terminal ">
<path d="M546.5 228h0.0"></path><path d="M614.0 228h0.0"></path><rect class="term" height="24" width="67.5" x="546.5" y="217"></rect><text x="580.25" y="233">CLOSE</text></g></g><path d="M828.5 228a10 10 0 0 0 10 -10v-176a10 10 0 0 1 10 -10"></path><path d="M40.0 32a10 10 0 0 1 10 10v208a10 10 0 0 0 10 10"></path><g>
<path d="M60.0 260h214.5"></path><path d="M614.0 260h214.5"></path><g class="terminal ">
<path d="M274.5 260h0.0"></path><path d="M361.0 260h0.0"></path><rect class="term" height="24" width="86.5" x="274.5" y="249"></rect><text x="317.75" y="265">'lower'</text></g><path d="M361.0 260h10"></path><path d="M371.0 260h10"></path><g class="terminal ">
<path d="M381.0 260h0.0"></path><path d="M439.0 260h0.0"></path><rect class="term" height="24" width="58.0" x="381.0" y="249"></rect><text x="410.0" y="265">OPEN</text></g><path d="M439.0 260h10"></path><path d="M449.0 260h10"></path><g class="non-terminal ">
<path d="M459.0 260h0.0"></path><path d="M526.5 260h0.0"></path><rect class="nterm" height="22" rx="10" ry="10" width="67.5" x="459.0" y="249"></rect><text x="492.75" y="264">token</text></g><path d="M526.5 260h10"></path><path d="M536.5 260h10"></path><g class="terminal ">
<path d="M546.5 260h0.0"></path><path d="M614.0 260h0.0"></path><rect class="term" height="24" width="67.5" x="546.5" y="249"></rect><text x="580.25" y="265">CLOSE</text></g></g><path d="M828.5 260a10 10 0 0 0 10 -10v-208a10 10 0 0 1 10 -10"></path></g><path d="M 848.5 32 h 20 m -10 -10 v 20 m 10 -20 v 20"></path></g></svg>