<?xml version="1.0" encoding="UTF-8" standalone="no"?>
<svg
   xmlns:dc="http://purl.org/dc/elements/1.1/"
   xmlns:cc="http://creativecommons.org/ns#"
   xmlns:rdf="http://www.w3.org/1999/02/22-rdf-syntax-ns#"
   xmlns:svg="http://www.w3.org/2000/svg"
   xmlns="http://www.w3.org/2000/svg"
   xmlns:sodipodi="http://sodipodi.sourceforge.net/DTD/sodipodi-0.dtd"
   xmlns:inkscape="http://www.inkscape.org/namespaces/inkscape"
   viewBox="0 0 349.10627 140.61261"
   height="140.61261"
   width="349.10626"
   xml:space="preserve"
   version="1.1"
   id="svg2"
   inkscape:version="0.91 r13725"
   sodipodi:docname="404.svg"><sodipodi:namedview
     pagecolor="#ffffff"
     bordercolor="#666666"
     borderopacity="1"
     objecttolerance="10"
     gridtolerance="10"
     guidetolerance="10"
     inkscape:pageopacity="0"
     inkscape:pageshadow="2"
     inkscape:window-width="1607"
     inkscape:window-height="841"
     id="namedview14294"
     showgrid="false"
     fit-margin-top="0"
     fit-margin-left="0"
     fit-margin-right="0"
     fit-margin-bottom="0"
     inkscape:zoom="1.791901"
     inkscape:cx="151.46292"
     inkscape:cy="52.199092"
     inkscape:window-x="0"
     inkscape:window-y="24"
     inkscape:window-maximized="0"
     inkscape:current-layer="svg2" /><metadata
     id="metadata8"><rdf:RDF><cc:Work
         rdf:about=""><dc:format>image/svg+xml</dc:format><dc:type
           rdf:resource="http://purl.org/dc/dcmitype/StillImage" /><dc:title></dc:title></cc:Work></rdf:RDF></metadata><defs
     id="defs6" /><g
     id="g528"
     transform="matrix(-1.25,0,0,1.25,182.23726,141.34271)" /><g
     id="g778"
     transform="matrix(1.25,0,0,-1.25,12.524756,154.90521)"><g
       id="g780"><g
         id="g782"><g
           id="g784"
           transform="scale(-1,-1)"><g
             id="g786" /><g
             id="g788"
             transform="matrix(-1,0,0,-1,215,-268.74)"><g
               id="g790" /><g
               id="g792"
               transform="translate(-7.97,0)"><text
                 transform="matrix(1,0,0,-1,215,-268.74)"
                 style="font-variant:normal;font-weight:normal;font-size:7.96999979px;font-family:Arial;-inkscape-font-specification:ArialMT;writing-mode:lr-tb;fill:#000000;fill-opacity:1;fill-rule:nonzero;stroke:none"
                 id="text794"><tspan
                   x="0 5.7543402 11.07033"
                   y="0"
                   id="tspan796">DET</tspan></text>
</g><g
               id="g798"
               transform="translate(215,-268.74)" /></g></g></g></g></g><g
     id="g802"
     transform="matrix(1.25,0,0,-1.25,49.774756,154.90521)"><g
       id="g804"><g
         id="g806"><g
           id="g808"
           transform="scale(-1,-1)"><g
             id="g810" /><g
             id="g812"
             transform="matrix(-1,0,0,-1,244.8,-268.74)"><g
               id="g814" /><g
               id="g816"
               transform="translate(-11.73,0)"><text
                 transform="matrix(1,0,0,-1,244.8,-268.74)"
                 style="font-variant:normal;font-weight:normal;font-size:7.96999979px;font-family:Arial;-inkscape-font-specification:ArialMT;writing-mode:lr-tb;fill:#000000;fill-opacity:1;fill-rule:nonzero;stroke:none"
                 id="text818"><tspan
                   x="0 5.7543402 11.955 17.709339"
                   y="0"
                   id="tspan820">NOUN</tspan></text>
</g><g
               id="g822"
               transform="translate(244.8,-268.74)" /></g></g></g></g></g><g
     id="g826"
     transform="matrix(1.25,0,0,-1.25,88.537256,154.90521)"><g
       id="g828"><g
         id="g830"><g
           id="g832"
           transform="scale(-1,-1)"><g
             id="g834" /><g
             id="g836"
             transform="matrix(-1,0,0,-1,275.81,-268.74)"><g
               id="g838" /><g
               id="g840"
               transform="translate(-11.51,0)"><text
                 transform="matrix(1,0,0,-1,275.81,-268.74)"
                 style="font-variant:normal;font-weight:normal;font-size:7.96999979px;font-family:Arial;-inkscape-font-specification:ArialMT;writing-mode:lr-tb;fill:#000000;fill-opacity:1;fill-rule:nonzero;stroke:none"
                 id="text842"><tspan
                   x="0 5.31599 11.07033 17.27099"
                   y="0"
                   id="tspan844">PRON</tspan></text>
</g><g
               id="g846"
               transform="translate(275.81,-268.74)" /></g></g></g></g></g><g
     id="g850"
     transform="matrix(1.25,0,0,-1.25,121.47476,154.90521)"><g
       id="g852"><g
         id="g854"><g
           id="g856"
           transform="scale(-1,-1)"><g
             id="g858" /><g
             id="g860"
             transform="matrix(-1,0,0,-1,302.16,-268.74)"><g
               id="g862" /><g
               id="g864"
               transform="translate(-8.19,0)"><text
                 transform="matrix(1,0,0,-1,302.16,-268.74)"
                 style="font-variant:normal;font-weight:normal;font-size:7.96999979px;font-family:Arial;-inkscape-font-specification:ArialMT;writing-mode:lr-tb;fill:#000000;fill-opacity:1;fill-rule:nonzero;stroke:none"
                 id="text866"><tspan
                   x="0 5.31599 11.07033"
                   y="0"
                   id="tspan868">AUX</tspan></text>
</g><g
               id="g870"
               transform="translate(302.16,-268.74)" /></g></g></g></g></g><g
     id="g874"
     transform="matrix(1.25,0,0,-1.25,163.69976,154.90521)"><g
       id="g876"><g
         id="g878"><g
           id="g880"
           transform="scale(-1,-1)"><g
             id="g882" /><g
             id="g884"
             transform="matrix(-1,0,0,-1,335.94,-268.74)"><g
               id="g886" /><g
               id="g888"
               transform="translate(-10.85,0)"><text
                 transform="matrix(1,0,0,-1,335.94,-268.74)"
                 style="font-variant:normal;font-weight:normal;font-size:7.96999979px;font-family:Arial;-inkscape-font-specification:ArialMT;writing-mode:lr-tb;fill:#000000;fill-opacity:1;fill-rule:nonzero;stroke:none"
                 id="text890"><tspan
                   x="0 5.31599 10.63198 16.38632"
                   y="0"
                   id="tspan892">VERB</tspan></text>
</g><g
               id="g894"
               transform="translate(335.94,-268.74)" /></g></g></g></g></g><g
     id="g898"
     transform="matrix(1.25,0,0,-1.25,205.37476,154.90521)"><g
       id="g900"><g
         id="g902"><g
           id="g904"
           transform="scale(-1,-1)"><g
             id="g906" /><g
             id="g908"
             transform="matrix(-1,0,0,-1,369.28,-268.74)"><g
               id="g910" /><g
               id="g912"
               transform="translate(-8.19,0)"><text
                 transform="matrix(1,0,0,-1,369.28,-268.74)"
                 style="font-variant:normal;font-weight:normal;font-size:7.96999979px;font-family:Arial;-inkscape-font-specification:ArialMT;writing-mode:lr-tb;fill:#000000;fill-opacity:1;fill-rule:nonzero;stroke:none"
                 id="text914"><tspan
                   x="0 5.31599 11.07033"
                   y="0"
                   id="tspan916">ADP</tspan></text>
</g><g
               id="g918"
               transform="translate(369.28,-268.74)" /></g></g></g></g></g><g
     id="g922"
     transform="matrix(1.25,0,0,-1.25,239.56226,154.90521)"><g
       id="g924"><g
         id="g926"><g
           id="g928"
           transform="scale(-1,-1)"><g
             id="g930" /><g
             id="g932"
             transform="matrix(-1,0,0,-1,396.63,-268.74)"><g
               id="g934" /><g
               id="g936"
               transform="translate(-8.19,0)"><text
                 transform="matrix(1,0,0,-1,396.63,-268.74)"
                 style="font-variant:normal;font-weight:normal;font-size:7.96999979px;font-family:Arial;-inkscape-font-specification:ArialMT;writing-mode:lr-tb;fill:#000000;fill-opacity:1;fill-rule:nonzero;stroke:none"
                 id="text938"><tspan
                   x="0 5.31599 11.07033"
                   y="0"
                   id="tspan940">AUX</tspan></text>
</g><g
               id="g942"
               transform="translate(396.63,-268.74)" /></g></g></g></g></g><g
     id="g946"
     transform="matrix(1.25,0,0,-1.25,273.91226,154.90521)"><g
       id="g948"><g
         id="g950"><g
           id="g952"
           transform="scale(-1,-1)"><g
             id="g954" /><g
             id="g956"
             transform="matrix(-1,0,0,-1,424.11,-268.74)"><g
               id="g958" /><g
               id="g960"
               transform="translate(-8.19,0)"><text
                 transform="matrix(1,0,0,-1,424.11,-268.74)"
                 style="font-variant:normal;font-weight:normal;font-size:7.96999979px;font-family:Arial;-inkscape-font-specification:ArialMT;writing-mode:lr-tb;fill:#000000;fill-opacity:1;fill-rule:nonzero;stroke:none"
                 id="text962"><tspan
                   x="0 5.31599 11.07033"
                   y="0"
                   id="tspan964">ADV</tspan></text>
</g><g
               id="g966"
               transform="translate(424.11,-268.74)" /></g></g></g></g></g><g
     id="g970"
     transform="matrix(1.25,0,0,-1.25,307.41226,154.90521)"><g
       id="g972"><g
         id="g974"><g
           id="g976"
           transform="scale(-1,-1)"><g
             id="g978" /><g
             id="g980"
             transform="matrix(-1,0,0,-1,450.91,-268.74)"><g
               id="g982" /><g
               id="g984"
               transform="translate(-10.85,0)"><text
                 transform="matrix(1,0,0,-1,450.91,-268.74)"
                 style="font-variant:normal;font-weight:normal;font-size:7.96999979px;font-family:Arial;-inkscape-font-specification:ArialMT;writing-mode:lr-tb;fill:#000000;fill-opacity:1;fill-rule:nonzero;stroke:none"
                 id="text986"><tspan
                   x="0 5.31599 10.63198 16.38632"
                   y="0"
                   id="tspan988">VERB</tspan></text>
</g><g
               id="g990"
               transform="translate(450.91,-268.74)" /></g></g></g></g></g><g
     id="g994"
     transform="matrix(1.25,0,0,-1.25,347.67476,154.90521)"><g
       id="g996"><g
         id="g998"><g
           id="g1000"
           transform="scale(-1,-1)"><g
             id="g1002" /><g
             id="g1004"
             transform="matrix(-1,0,0,-1,483.12,-268.74)"><g
               id="g1006" /><g
               id="g1008"
               transform="translate(-13.73,0)"><text
                 transform="matrix(1,0,0,-1,483.12,-268.74)"
                 style="font-variant:normal;font-weight:normal;font-size:7.96999979px;font-family:Arial;-inkscape-font-specification:ArialMT;writing-mode:lr-tb;fill:#000000;fill-opacity:1;fill-rule:nonzero;stroke:none"
                 id="text1010"><tspan
                   x="0 5.31599 11.07033 16.824671 22.57901"
                   y="0"
                   id="tspan1012">PUNCT</tspan></text>
</g><g
               id="g1014"
               transform="translate(483.12,-268.74)" /></g></g></g></g></g><g
     id="g19371"
     transform="translate(-4.1383898e-6,-3.7471748e-6)"><g
       transform="matrix(1.25,0,0,-1.25,182.23726,141.34271)"
       id="g1412"><path
         inkscape:connector-curvature="0"
         id="path1414"
         style="fill:none;stroke:#ff9933;stroke-width:1.19553006;stroke-linecap:round;stroke-linejoin:miter;stroke-miterlimit:10;stroke-dasharray:none;stroke-opacity:1"
         d="m 100.13263,100.74171 0,-81.85566" /><g
         transform="matrix(0,-1,1,0,100.13263,18.88605)"
         id="g1416"><g
           id="g1418"><path
             inkscape:connector-curvature="0"
             id="path1420"
             style="fill:#ff9933;fill-opacity:1;fill-rule:nonzero;stroke:none"
             d="M 3.18808,0 -1.91284,2.55046 0,0 -1.91284,-2.55046" /></g></g></g><g
       transform="matrix(1.25,0,0,-1.25,12.52476,137.46771)"
       id="g538"><g
         id="g540"><g
           id="g542"><g
             transform="scale(-1,-1)"
             id="g544"><g
               id="g546" /><g
               transform="matrix(-1,0,0,-1,215,-254.79)"
               id="g548"><g
                 id="g550" /><g
                 transform="translate(-10.3,0)"
                 id="g552"><text
                   id="text554"
                   style="font-variant:normal;font-weight:normal;font-size:11.95499992px;font-family:Arial;-inkscape-font-specification:ArialMT;writing-mode:lr-tb;fill:#000000;fill-opacity:1;fill-rule:nonzero;stroke:none"
                   transform="matrix(1,0,0,-1,215,-254.79)"><tspan
                     id="tspan556"
                     y="0"
                     x="0 7.3045049 13.951485">The</tspan></text>
</g><g
                 transform="translate(215,-254.79)"
                 id="g558" /></g></g></g></g></g><g
       transform="matrix(1.25,0,0,-1.25,49.77476,137.46771)"
       id="g562"><g
         id="g564"><g
           id="g566"><g
             transform="scale(-1,-1)"
             id="g568"><g
               id="g570" /><g
               transform="matrix(-1,0,0,-1,244.8,-254.79)"
               id="g572"><g
                 id="g574" /><g
                 transform="translate(-13.3,0)"
                 id="g576"><text
                   id="text578"
                   style="font-variant:normal;font-weight:normal;font-size:11.95499992px;font-family:Arial;-inkscape-font-specification:ArialMT;writing-mode:lr-tb;fill:#ff0000;fill-opacity:1;fill-rule:nonzero;stroke:none"
                   transform="matrix(1,0,0,-1,244.8,-254.79)"><tspan
                     id="tspan580"
                     y="0"
                     x="0 6.6469798 13.29396 19.940941">page</tspan></text>
</g><g
                 transform="translate(244.8,-254.79)"
                 id="g582" /></g></g></g></g></g><g
       transform="matrix(1.25,0,0,-1.25,88.53726,137.46771)"
       id="g586"><g
         id="g588"><g
           id="g590"><g
             transform="scale(-1,-1)"
             id="g592"><g
               id="g594" /><g
               transform="matrix(-1,0,0,-1,275.81,-254.79)"
               id="g596"><g
                 id="g598" /><g
                 transform="translate(-9.64,0)"
                 id="g600"><text
                   id="text602"
                   style="font-variant:normal;font-weight:normal;font-size:11.95499992px;font-family:Arial;-inkscape-font-specification:ArialMT;writing-mode:lr-tb;fill:#000000;fill-opacity:1;fill-rule:nonzero;stroke:none"
                   transform="matrix(1,0,0,-1,275.81,-254.79)"><tspan
                     id="tspan604"
                     y="0"
                     x="0 5.9775 12.62448">you</tspan></text>
</g><g
                 transform="translate(275.81,-254.79)"
                 id="g606" /></g></g></g></g></g><g
       transform="matrix(1.25,0,0,-1.25,121.47476,137.46771)"
       id="g610"><g
         id="g612"><g
           id="g614"><g
             transform="scale(-1,-1)"
             id="g616"><g
               id="g618" /><g
               transform="matrix(-1,0,0,-1,302.16,-254.79)"
               id="g620"><g
                 id="g622" /><g
                 transform="translate(-8.64,0)"
                 id="g624"><text
                   id="text626"
                   style="font-variant:normal;font-weight:normal;font-size:11.95499992px;font-family:Arial;-inkscape-font-specification:ArialMT;writing-mode:lr-tb;fill:#000000;fill-opacity:1;fill-rule:nonzero;stroke:none"
                   transform="matrix(1,0,0,-1,302.16,-254.79)"><tspan
                     id="tspan628"
                     y="0"
                     x="0 6.6469798 10.627995">are</tspan></text>
</g><g
                 transform="translate(302.16,-254.79)"
                 id="g630" /></g></g></g></g></g><g
       transform="matrix(1.25,0,0,-1.25,163.69976,137.46771)"
       id="g634"><g
         id="g636"><g
           id="g638"><g
             transform="scale(-1,-1)"
             id="g640"><g
               id="g642" /><g
               transform="matrix(-1,0,0,-1,335.94,-254.79)"
               id="g644"><g
                 id="g646" /><g
                 transform="translate(-18.94,0)"
                 id="g648"><text
                   id="text650"
                   style="font-variant:normal;font-weight:normal;font-size:11.95499992px;font-family:Arial;-inkscape-font-specification:ArialMT;writing-mode:lr-tb;fill:#000000;fill-opacity:1;fill-rule:nonzero;stroke:none"
                   transform="matrix(1,0,0,-1,335.94,-254.79)"><tspan
                     id="tspan652"
                     y="0"
                     x="0 2.6540101 9.3009901 15.94797 21.92547 24.579479 31.22646">looking</tspan></text>
</g><g
                 transform="translate(335.94,-254.79)"
                 id="g654" /></g></g></g></g></g><g
       transform="matrix(1.25,0,0,-1.25,205.37476,137.46771)"
       id="g658"><g
         id="g660"><g
           id="g662"><g
             transform="scale(-1,-1)"
             id="g664"><g
               id="g666" /><g
               transform="matrix(-1,0,0,-1,369.28,-254.79)"
               id="g668"><g
                 id="g670" /><g
                 transform="translate(-6.98,0)"
                 id="g672"><text
                   id="text674"
                   style="font-variant:normal;font-weight:normal;font-size:11.95499992px;font-family:Arial;-inkscape-font-specification:ArialMT;writing-mode:lr-tb;fill:#000000;fill-opacity:1;fill-rule:nonzero;stroke:none"
                   transform="matrix(1,0,0,-1,369.28,-254.79)"><tspan
                     id="tspan676"
                     y="0"
                     x="0 3.3234899 9.9704704">for</tspan></text>
</g><g
                 transform="translate(369.28,-254.79)"
                 id="g678" /></g></g></g></g></g><g
       transform="matrix(1.25,0,0,-1.25,239.56226,137.46771)"
       id="g682"><g
         id="g684"><g
           id="g686"><g
             transform="scale(-1,-1)"
             id="g688"><g
               id="g690" /><g
               transform="matrix(-1,0,0,-1,396.63,-254.79)"
               id="g692"><g
                 id="g694" /><g
                 transform="translate(-12.96,0)"
                 id="g696"><text
                   id="text698"
                   style="font-variant:normal;font-weight:normal;font-size:11.95499992px;font-family:Arial;-inkscape-font-specification:ArialMT;writing-mode:lr-tb;fill:#ff0000;fill-opacity:1;fill-rule:nonzero;stroke:none"
                   transform="matrix(1,0,0,-1,396.63,-254.79)"><tspan
                     id="tspan700"
                     y="0"
                     x="0 6.6469798 13.29396 19.940941">does</tspan></text>
</g><g
                 transform="translate(396.63,-254.79)"
                 id="g702" /></g></g></g></g></g><g
       transform="matrix(1.25,0,0,-1.25,273.91226,137.46771)"
       id="g706"><g
         id="g708"><g
           id="g710"><g
             transform="scale(-1,-1)"
             id="g712"><g
               id="g714" /><g
               transform="matrix(-1,0,0,-1,424.11,-254.79)"
               id="g716"><g
                 id="g718" /><g
                 transform="translate(-8.31,0)"
                 id="g720"><text
                   id="text722"
                   style="font-variant:normal;font-weight:normal;font-size:11.95499992px;font-family:Arial;-inkscape-font-specification:ArialMT;writing-mode:lr-tb;fill:#ff0000;fill-opacity:1;fill-rule:nonzero;stroke:none"
                   transform="matrix(1,0,0,-1,424.11,-254.79)"><tspan
                     id="tspan724"
                     y="0"
                     x="0 6.6469798 13.29396">not</tspan></text>
</g><g
                 transform="translate(424.11,-254.79)"
                 id="g726" /></g></g></g></g></g><g
       transform="matrix(1.25,0,0,-1.25,307.41226,137.46771)"
       id="g730"><g
         id="g732"><g
           id="g734"><g
             transform="scale(-1,-1)"
             id="g736"><g
               id="g738" /><g
               transform="matrix(-1,0,0,-1,450.91,-254.79)"
               id="g740"><g
                 id="g742" /><g
                 transform="translate(-12.29,0)"
                 id="g744"><text
                   id="text746"
                   style="font-variant:normal;font-weight:normal;font-size:11.95499992px;font-family:Arial;-inkscape-font-specification:ArialMT;writing-mode:lr-tb;fill:#ff0000;fill-opacity:1;fill-rule:nonzero;stroke:none"
                   transform="matrix(1,0,0,-1,450.91,-254.79)"><tspan
                     id="tspan748"
                     y="0"
                     x="0 6.6469798 12.62448 15.27849 21.255989">exist</tspan></text>
</g><g
                 transform="translate(450.91,-254.79)"
                 id="g750" /></g></g></g></g></g><g
       transform="matrix(1.25,0,0,-1.25,347.67476,137.46771)"
       id="g754"><g
         id="g756"><g
           id="g758"><g
             transform="scale(-1,-1)"
             id="g760"><g
               id="g762" /><g
               transform="matrix(-1,0,0,-1,483.12,-254.79)"
               id="g764"><g
                 id="g766" /><g
                 transform="translate(-1.66,0)"
                 id="g768"><text
                   id="text770"
                   style="font-variant:normal;font-weight:normal;font-size:11.95499992px;font-family:Arial;-inkscape-font-specification:ArialMT;writing-mode:lr-tb;fill:#000000;fill-opacity:1;fill-rule:nonzero;stroke:none"
                   transform="matrix(1,0,0,-1,483.12,-254.79)"><tspan
                     id="tspan772"
                     y="0"
                     x="0">!</tspan></text>
</g><g
                 transform="translate(483.12,-254.79)"
                 id="g774" /></g></g></g></g></g><g
       transform="matrix(1.25,0,0,-1.25,182.23726,141.34271)"
       id="g1020"><g
         id="g1022" /><g
         id="g1024" /><g
         id="g1026" /><g
         id="g1028" /><g
         id="g1030"><path
           inkscape:connector-curvature="0"
           id="path1032"
           style="fill:none;stroke:#00e600;stroke-width:1.19553006;stroke-linecap:round;stroke-linejoin:miter;stroke-miterlimit:10;stroke-dasharray:none;stroke-opacity:1"
           d="m -109.9621,15.69797 -4.01725,14.9985 c -0.53248,1.98823 -2.62949,3.59996 -4.68381,3.59996 l -8.4106,0 c -2.05432,0 -4.15134,-1.61173 -4.68382,-3.59996 l -3.1908,-11.91302" /><g
           transform="matrix(-0.25923,-0.96782,0.96782,-0.25923,-134.94836,18.78345)"
           id="g1034"><g
             id="g1036"><path
               inkscape:connector-curvature="0"
               id="path1038"
               style="fill:#00e600;fill-opacity:1;fill-rule:nonzero;stroke:none"
               d="M 3.18808,0 -1.91284,2.55046 0,0 -1.91284,-2.55046" /></g></g></g><g
         id="g1040"><g
           id="g1042"><path
             inkscape:connector-curvature="0"
             id="path1044"
             style="fill:#e6ffe6;fill-opacity:1;fill-rule:nonzero;stroke:#00b300;stroke-width:0.79701;stroke-linecap:butt;stroke-linejoin:miter;stroke-miterlimit:10;stroke-dasharray:none;stroke-opacity:1"
             d="m -116.41469,40.80585 -12.90755,0 c -1.10046,0 -1.99255,-0.89209 -1.99255,-1.99255 l 0,-7.94886 c 0,-1.10046 0.89209,-1.99255 1.99255,-1.99255 l 12.90755,0 c 1.10047,0 1.99256,0.89209 1.99256,1.99255 l 0,7.94886 c 0,1.10046 -0.89209,1.99255 -1.99256,1.99255 z" /></g><g
           id="g1046"><g
             transform="scale(-1,-1)"
             id="g1048"><g
               id="g1050" /><g
               transform="matrix(-1,0,0,-1,201.6,-268.74)"
               id="g1052"><g
                 id="g1054" /><g
                 transform="matrix(0.7,0,0,0.7,-68.66,-48.5)"
                 id="g1056"><text
                   id="text1058"
                   style="font-variant:normal;font-weight:bold;font-size:11.95499992px;font-family:Arial;-inkscape-font-specification:Arial-BoldMT;writing-mode:lr-tb;fill:#000000;fill-opacity:1;fill-rule:nonzero;stroke:none"
                   transform="matrix(1,0,0,-1,201.6,-268.74)"><tspan
                     id="tspan1060"
                     y="0"
                     x="0 7.3045049 13.951485">det</tspan></text>
</g><g
                 transform="translate(201.6,-268.74)"
                 id="g1062" /></g></g></g></g></g><g
       transform="matrix(1.25,0,0,-1.25,182.23726,141.34271)"
       id="g1066"><g
         id="g1068" /><g
         id="g1070" /><g
         id="g1072" /><g
         id="g1074" /><g
         id="g1076"><path
           inkscape:connector-curvature="0"
           id="path1078"
           style="fill:none;stroke:#00e600;stroke-width:1.19553006;stroke-linecap:round;stroke-linejoin:miter;stroke-miterlimit:10;stroke-dasharray:none;stroke-opacity:1"
           d="m -18.81639,15.69797 -4.01724,14.9985 c -0.53249,1.98823 -2.62949,3.59996 -4.68383,3.59996 l -12.39473,0 c -2.05431,0 -4.15133,-1.61173 -4.68381,-3.59996 l -3.1908,-11.91302" /><g
           transform="matrix(-0.25923,-0.96782,0.96782,-0.25923,-47.78679,18.78345)"
           id="g1080"><g
             id="g1082"><path
               inkscape:connector-curvature="0"
               id="path1084"
               style="fill:#00e600;fill-opacity:1;fill-rule:nonzero;stroke:none"
               d="M 3.18808,0 -1.91284,2.55046 0,0 -1.91284,-2.55046" /></g></g></g><g
         id="g1086"><g
           id="g1088"><path
             inkscape:connector-curvature="0"
             id="path1090"
             style="fill:#e6ffe6;fill-opacity:1;fill-rule:nonzero;stroke:#00b300;stroke-width:0.79701;stroke-linecap:butt;stroke-linejoin:miter;stroke-miterlimit:10;stroke-dasharray:none;stroke-opacity:1"
             d="m -26.32733,40.80585 -14.77497,0 c -1.10047,0 -1.99255,-0.89209 -1.99255,-1.99255 l 0,-7.94886 c 0,-1.10046 0.89208,-1.99255 1.99255,-1.99255 l 14.77497,0 c 1.10048,0 1.99255,0.89209 1.99255,1.99255 l 0,7.94886 c 0,1.10046 -0.89207,1.99255 -1.99255,1.99255 z" /></g><g
           id="g1092"><g
             transform="scale(-1,-1)"
             id="g1094"><g
               id="g1096" /><g
               transform="matrix(-1,0,0,-1,201.6,-268.74)"
               id="g1098"><g
                 id="g1100" /><g
                 transform="matrix(0.7,0,0,0.7,19.56,-48.5)"
                 id="g1102"><text
                   id="text1104"
                   style="font-variant:normal;font-weight:bold;font-size:11.95499992px;font-family:Arial;-inkscape-font-specification:Arial-BoldMT;writing-mode:lr-tb;fill:#000000;fill-opacity:1;fill-rule:nonzero;stroke:none"
                   transform="matrix(1,0,0,-1,201.6,-268.74)"><tspan
                     id="tspan1106"
                     y="0"
                     x="0 6.6469798 13.951485">aux</tspan></text>
</g><g
                 transform="translate(201.6,-268.74)"
                 id="g1108" /></g></g></g></g></g><g
       transform="matrix(1.25,0,0,-1.25,182.23726,141.34271)"
       id="g1112"><g
         id="g1114" /><g
         id="g1116" /><g
         id="g1118" /><g
         id="g1120" /><g
         id="g1122"><path
           inkscape:connector-curvature="0"
           id="path1124"
           style="fill:none;stroke:#00e600;stroke-width:1.19553006;stroke-linecap:round;stroke-linejoin:miter;stroke-miterlimit:10;stroke-dasharray:none;stroke-opacity:1"
           d="m -18.81639,15.69797 -3.99358,29.81965 c -0.54554,4.07441 -4.31848,7.37728 -8.42718,7.37728 l -31.30802,0 c -4.1087,0 -7.88163,-3.30287 -8.4272,-7.37728 l -3.57025,-26.65818" /><g
           transform="matrix(-0.13278,-0.99165,0.99165,-0.13278,-74.5426,18.85945)"
           id="g1126"><g
             id="g1128"><path
               inkscape:connector-curvature="0"
               id="path1130"
               style="fill:#00e600;fill-opacity:1;fill-rule:nonzero;stroke:none"
               d="M 3.18808,0 -1.91284,2.55046 0,0 -1.91284,-2.55046" /></g></g></g><g
         id="g1132"><g
           id="g1134"><path
             inkscape:connector-curvature="0"
             id="path1136"
             style="fill:#e6ffe6;fill-opacity:1;fill-rule:nonzero;stroke:#00b300;stroke-width:0.79701;stroke-linecap:butt;stroke-linejoin:miter;stroke-miterlimit:10;stroke-dasharray:none;stroke-opacity:1"
             d="m -35.55634,59.40431 -22.66964,0 c -1.10048,0 -1.99256,-0.89209 -1.99256,-1.99255 l 0,-7.94886 c 0,-1.10046 0.89208,-1.99255 1.99256,-1.99255 l 22.66964,0 c 1.10047,0 1.99256,0.89209 1.99256,1.99255 l 0,7.94886 c 0,1.10046 -0.89209,1.99255 -1.99256,1.99255 z" /></g><g
           id="g1138"><g
             transform="scale(-1,-1)"
             id="g1140"><g
               id="g1142" /><g
               transform="matrix(-1,0,0,-1,201.6,-268.74)"
               id="g1144"><g
                 id="g1146" /><g
                 transform="matrix(0.7,0,0,0.7,2.43,-29.9)"
                 id="g1148"><text
                   id="text1150"
                   style="font-variant:normal;font-weight:bold;font-size:11.95499992px;font-family:Arial;-inkscape-font-specification:Arial-BoldMT;writing-mode:lr-tb;fill:#000000;fill-opacity:1;fill-rule:nonzero;stroke:none"
                   transform="matrix(1,0,0,-1,201.6,-268.74)"><tspan
                     id="tspan1152"
                     y="0"
                     x="0 7.3045049 13.951485 21.255989 28.560495">nsubj</tspan></text>
</g><g
                 transform="translate(201.6,-268.74)"
                 id="g1154" /></g></g></g></g></g><g
       transform="matrix(1.25,0,0,-1.25,182.23726,141.34271)"
       id="g1158"><g
         id="g1160" /><g
         id="g1162" /><g
         id="g1164" /><g
         id="g1166" /><g
         id="g1168"><path
           inkscape:connector-curvature="0"
           id="path1170"
           style="fill:none;stroke:#00e600;stroke-width:1.19553006;stroke-linecap:round;stroke-linejoin:miter;stroke-miterlimit:10;stroke-dasharray:none;stroke-opacity:1"
           d="m -101.99188,15.69797 3.98836,44.6719 c 0.54841,6.14342 5.98902,11.12349 12.15209,11.12349 l 54.87969,0 c 6.16305,0 11.60367,-4.98007 12.1521,-11.12349 l 3.7047,-41.49398" /><g
           transform="matrix(0.08897,-0.99681,0.99681,0.08897,-15.11494,18.87589)"
           id="g1172"><g
             id="g1174"><path
               inkscape:connector-curvature="0"
               id="path1176"
               style="fill:#00e600;fill-opacity:1;fill-rule:nonzero;stroke:none"
               d="M 3.18808,0 -1.91284,2.55046 0,0 -1.91284,-2.55046" /></g></g></g><g
         id="g1178"><g
           id="g1180"><path
             inkscape:connector-curvature="0"
             id="path1182"
             style="fill:#e6ffe6;fill-opacity:1;fill-rule:nonzero;stroke:#00b300;stroke-width:0.79701;stroke-linecap:butt;stroke-linejoin:miter;stroke-miterlimit:10;stroke-dasharray:none;stroke-opacity:1"
             d="m -42.41637,78.00278 -31.99043,0 c -1.10048,0 -1.99255,-0.89209 -1.99255,-1.99256 l 0,-7.94885 c 0,-1.10047 0.89207,-1.99255 1.99255,-1.99255 l 31.99043,0 c 1.10047,0 1.99256,0.89208 1.99256,1.99255 l 0,7.94885 c 0,1.10047 -0.89209,1.99256 -1.99256,1.99256 z" /></g><g
           id="g1184"><g
             transform="scale(-1,-1)"
             id="g1186"><g
               id="g1188" /><g
               transform="matrix(-1,0,0,-1,201.6,-268.74)"
               id="g1190"><g
                 id="g1192" /><g
                 transform="matrix(0.7,0,0,0.7,-13.75,-11.3)"
                 id="g1194"><text
                   id="text1196"
                   style="font-variant:normal;font-weight:bold;font-size:11.95499992px;font-family:Arial;-inkscape-font-specification:Arial-BoldMT;writing-mode:lr-tb;fill:#000000;fill-opacity:1;fill-rule:nonzero;stroke:none"
                   transform="matrix(1,0,0,-1,201.6,-268.74)"><tspan
                     id="tspan1198"
                     y="0"
                     x="0 6.6469798 13.29396 16.617451 20.598465 25.24896 31.895941 35.219429 41.866409">acl:relcl</tspan></text>
</g><g
                 transform="translate(201.6,-268.74)"
                 id="g1200" /></g></g></g></g></g><g
       transform="matrix(1.25,0,0,-1.25,182.23726,141.34271)"
       id="g1204"><g
         id="g1206" /><g
         id="g1208" /><g
         id="g1210" /><g
         id="g1212" /><g
         id="g1214"><path
           inkscape:connector-curvature="0"
           id="path1216"
           style="fill:none;stroke:#00e600;stroke-width:1.19553006;stroke-linecap:round;stroke-linejoin:miter;stroke-miterlimit:10;stroke-dasharray:none;stroke-opacity:1"
           d="m -10.84618,15.69797 4.01725,14.9985 c 0.53248,1.98823 2.62948,3.59996 4.68382,3.59996 l 11.9491,0 c 2.05433,0 4.15135,-1.61173 4.68382,-3.59996 l 3.19081,-11.91302" /><g
           transform="matrix(0.25923,-0.96782,0.96782,0.25923,17.6786,18.78345)"
           id="g1218"><g
             id="g1220"><path
               inkscape:connector-curvature="0"
               id="path1222"
               style="fill:#00e600;fill-opacity:1;fill-rule:nonzero;stroke:none"
               d="M 3.18808,0 -1.91284,2.55046 0,0 -1.91284,-2.55046" /></g></g></g><g
         id="g1224"><g
           id="g1226"><path
             inkscape:connector-curvature="0"
             id="path1228"
             style="fill:#e6ffe6;fill-opacity:1;fill-rule:nonzero;stroke:#00b300;stroke-width:0.79701;stroke-linecap:butt;stroke-linejoin:miter;stroke-miterlimit:10;stroke-dasharray:none;stroke-opacity:1"
             d="m 10.28117,40.80585 -12.90344,0 c -1.10048,0 -1.99255,-0.89209 -1.99255,-1.99255 l 0,-7.94886 c 0,-1.10046 0.89207,-1.99255 1.99255,-1.99255 l 12.90344,0 c 1.10047,0 1.99256,0.89209 1.99256,1.99255 l 0,7.94886 c 0,1.10046 -0.89209,1.99255 -1.99256,1.99255 z" /></g><g
           id="g1230"><g
             transform="scale(-1,-1)"
             id="g1232"><g
               id="g1234" /><g
               transform="matrix(-1,0,0,-1,201.6,-268.74)"
               id="g1236"><g
                 id="g1238" /><g
                 transform="matrix(0.7,0,0,0.7,58.04,-48.5)"
                 id="g1240"><text
                   id="text1242"
                   style="font-variant:normal;font-weight:bold;font-size:11.95499992px;font-family:Arial;-inkscape-font-specification:Arial-BoldMT;writing-mode:lr-tb;fill:#000000;fill-opacity:1;fill-rule:nonzero;stroke:none"
                   transform="matrix(1,0,0,-1,201.6,-268.74)"><tspan
                     id="tspan1244"
                     y="0"
                     x="0 7.3045049 14.60901">obl</tspan></text>
</g><g
                 transform="translate(201.6,-268.74)"
                 id="g1246" /></g></g></g></g></g><g
       transform="matrix(1.25,0,0,-1.25,182.23726,141.34271)"
       id="g1250"><g
         id="g1252" /><g
         id="g1254" /><g
         id="g1256" /><g
         id="g1258" /><g
         id="g1260"><path
           inkscape:connector-curvature="0"
           id="path1262"
           style="fill:none;stroke:#ff1919;stroke-width:1.19553006;stroke-linecap:round;stroke-linejoin:miter;stroke-miterlimit:10;stroke-dasharray:none;stroke-opacity:1"
           d="m 96.14752,15.69797 -3.988,55.58173 c -0.54863,7.65075 -7.21067,13.85278 -14.88028,13.85278 l -164.38796,0 c -7.6696,0 -14.33165,-6.20203 -14.88026,-13.85278 l -3.75992,-52.4015" /><g
           transform="matrix(-0.07155,-0.99754,0.99754,-0.07155,-105.74889,18.87822)"
           id="g1264"><g
             id="g1266"><path
               inkscape:connector-curvature="0"
               id="path1268"
               style="fill:#ff1919;fill-opacity:1;fill-rule:nonzero;stroke:none"
               d="M 3.18808,0 -1.91284,2.55046 0,0 -1.91284,-2.55046" /></g></g></g><g
         id="g1270"><g
           id="g1272"><path
             inkscape:connector-curvature="0"
             id="path1274"
             style="fill:#ffd9b3;fill-opacity:1;fill-rule:nonzero;stroke:#b30000;stroke-width:0.79701;stroke-linecap:butt;stroke-linejoin:miter;stroke-miterlimit:10;stroke-dasharray:none;stroke-opacity:1"
             d="m 6.42007,91.64189 -22.66963,0 c -1.10046,0 -1.99255,-0.89207 -1.99255,-1.99255 l 0,-7.94884 c 0,-1.10046 0.89209,-1.99255 1.99255,-1.99255 l 22.66963,0 c 1.10048,0 1.99256,0.89209 1.99256,1.99255 l 0,7.94884 c 0,1.10048 -0.89208,1.99255 -1.99256,1.99255 z" /></g><g
           id="g1276"><g
             transform="scale(-1,-1)"
             id="g1278"><g
               id="g1280" /><g
               transform="matrix(-1,0,0,-1,201.6,-268.74)"
               id="g1282"><g
                 id="g1284" /><g
                 transform="matrix(0.7,0,0,0.7,44.41,2.34)"
                 id="g1286"><text
                   id="text1288"
                   style="font-variant:normal;font-weight:bold;font-size:11.95499992px;font-family:Arial;-inkscape-font-specification:Arial-BoldMT;writing-mode:lr-tb;fill:#000000;fill-opacity:1;fill-rule:nonzero;stroke:none"
                   transform="matrix(1,0,0,-1,201.6,-268.74)"><tspan
                     id="tspan1290"
                     y="0"
                     x="0 7.3045049 13.951485 21.255989 28.560495">nsubj</tspan></text>
</g><g
                 transform="translate(201.6,-268.74)"
                 id="g1292" /></g></g></g></g></g><g
       transform="matrix(1.25,0,0,-1.25,182.23726,141.34271)"
       id="g1296"><g
         id="g1298" /><g
         id="g1300" /><g
         id="g1302" /><g
         id="g1304" /><g
         id="g1306"><path
           inkscape:connector-curvature="0"
           id="path1308"
           style="fill:none;stroke:#ff1919;stroke-width:1.19553006;stroke-linecap:round;stroke-linejoin:miter;stroke-miterlimit:10;stroke-dasharray:none;stroke-opacity:1"
           d="m 96.14752,15.69797 -3.99357,29.81965 c -0.54555,4.07441 -4.31849,7.37728 -8.42719,7.37728 l -25.44516,0 c -4.1087,0 -7.88164,-3.30287 -8.42718,-7.37728 L 46.28415,18.85944" /><g
           transform="matrix(-0.13278,-0.99165,0.99165,-0.13278,46.28416,18.85945)"
           id="g1310"><g
             id="g1312"><path
               inkscape:connector-curvature="0"
               id="path1314"
               style="fill:#ff1919;fill-opacity:1;fill-rule:nonzero;stroke:none"
               d="M 3.18808,0 -1.91284,2.55046 0,0 -1.91284,-2.55046" /></g></g></g><g
         id="g1316"><g
           id="g1318"><path
             inkscape:connector-curvature="0"
             id="path1320"
             style="fill:#ffd9b3;fill-opacity:1;fill-rule:nonzero;stroke:#b30000;stroke-width:0.79701;stroke-linecap:butt;stroke-linejoin:miter;stroke-miterlimit:10;stroke-dasharray:none;stroke-opacity:1"
             d="m 78.39166,59.40431 -14.77496,0 c -1.10046,0 -1.99255,-0.89209 -1.99255,-1.99255 l 0,-7.94886 c 0,-1.10046 0.89209,-1.99255 1.99255,-1.99255 l 14.77496,0 c 1.10048,0 1.99256,0.89209 1.99256,1.99255 l 0,7.94886 c 0,1.10046 -0.89208,1.99255 -1.99256,1.99255 z" /></g><g
           id="g1322"><g
             transform="scale(-1,-1)"
             id="g1324"><g
               id="g1326" /><g
               transform="matrix(-1,0,0,-1,201.6,-268.74)"
               id="g1328"><g
                 id="g1330" /><g
                 transform="matrix(0.7,0,0,0.7,124.27,-29.9)"
                 id="g1332"><text
                   id="text1334"
                   style="font-variant:normal;font-weight:bold;font-size:11.95499992px;font-family:Arial;-inkscape-font-specification:Arial-BoldMT;writing-mode:lr-tb;fill:#000000;fill-opacity:1;fill-rule:nonzero;stroke:none"
                   transform="matrix(1,0,0,-1,201.6,-268.74)"><tspan
                     id="tspan1336"
                     y="0"
                     x="0 6.6469798 13.951485">aux</tspan></text>
</g><g
                 transform="translate(201.6,-268.74)"
                 id="g1338" /></g></g></g></g></g><g
       transform="matrix(1.25,0,0,-1.25,182.23726,141.34271)"
       id="g1342"><g
         id="g1344" /><g
         id="g1346" /><g
         id="g1348" /><g
         id="g1350" /><g
         id="g1352"><path
           inkscape:connector-curvature="0"
           id="path1354"
           style="fill:none;stroke:#00e600;stroke-width:1.19553006;stroke-linecap:round;stroke-linejoin:miter;stroke-miterlimit:10;stroke-dasharray:none;stroke-opacity:1"
           d="m 104.11774,15.69797 4.01724,14.9985 c 0.53249,1.98823 2.62949,3.59996 4.68382,3.59996 l 10.82929,0 c 2.05432,0 4.15133,-1.61173 4.68381,-3.59996 l 3.1908,-11.91302" /><g
           transform="matrix(0.25923,-0.96782,0.96782,0.25923,131.52269,18.78345)"
           id="g1356"><g
             id="g1358"><path
               inkscape:connector-curvature="0"
               id="path1360"
               style="fill:#00e600;fill-opacity:1;fill-rule:nonzero;stroke:none"
               d="M 3.18808,0 -1.91284,2.55046 0,0 -1.91284,-2.55046" /></g></g></g><g
         id="g1362"><g
           id="g1364"><path
             inkscape:connector-curvature="0"
             id="path1366"
             style="fill:#e6ffe6;fill-opacity:1;fill-rule:nonzero;stroke:#00b300;stroke-width:0.79701;stroke-linecap:butt;stroke-linejoin:miter;stroke-miterlimit:10;stroke-dasharray:none;stroke-opacity:1"
             d="m 129.79913,40.80585 -23.13139,0 c -1.10046,0 -1.99255,-0.89209 -1.99255,-1.99255 l 0,-7.94886 c 0,-1.10046 0.89209,-1.99255 1.99255,-1.99255 l 23.13139,0 c 1.10048,0 1.99256,0.89209 1.99256,1.99255 l 0,7.94886 c 0,1.10046 -0.89208,1.99255 -1.99256,1.99255 z" /></g><g
           id="g1368"><g
             transform="scale(-1,-1)"
             id="g1370"><g
               id="g1372" /><g
               transform="matrix(-1,0,0,-1,201.6,-268.74)"
               id="g1374"><g
                 id="g1376" /><g
                 transform="matrix(0.7,0,0,0.7,167.33,-48.5)"
                 id="g1378"><text
                   id="text1380"
                   style="font-variant:normal;font-weight:bold;font-size:11.95499992px;font-family:Arial;-inkscape-font-specification:Arial-BoldMT;writing-mode:lr-tb;fill:#000000;fill-opacity:1;fill-rule:nonzero;stroke:none"
                   transform="matrix(1,0,0,-1,201.6,-268.74)"><tspan
                     id="tspan1382"
                     y="0"
                     x="0 7.3045049 14.60901 21.913515 28.560495">punct</tspan></text>
</g><g
                 transform="translate(201.6,-268.74)"
                 id="g1384" /></g></g></g></g></g><g
       transform="matrix(1.25,0,0,-1.25,182.23726,141.34271)"
       id="g1388"><g
         id="g1390"><path
           inkscape:connector-curvature="0"
           id="path1392"
           style="fill:#ff8000;fill-opacity:1;fill-rule:nonzero;stroke:#b30000;stroke-width:0.79701;stroke-linecap:butt;stroke-linejoin:miter;stroke-miterlimit:10;stroke-dasharray:none;stroke-opacity:1"
           d="m 129.36739,112.67566 -58.4695,0 c -1.10048,0 -1.99256,-0.89209 -1.99256,-1.99256 l 0,-7.94883 c 0,-1.10048 0.89208,-1.99256 1.99256,-1.99256 l 58.4695,0 c 1.10046,0 1.99255,0.89208 1.99255,1.99256 l 0,7.94883 c 0,1.10047 -0.89209,1.99256 -1.99255,1.99256 z" /></g><g
         id="g1394"><g
           transform="scale(-1,-1)"
           id="g1396"><g
             id="g1398" /><g
             transform="matrix(-1,0,0,-1,201.6,-268.74)"
             id="g1400"><g
               id="g1402" /><g
               transform="matrix(0.7,0,0,0.7,131.56,23.37)"
               id="g1404"><text
                 id="text1406"
                 style="font-variant:normal;font-weight:bold;font-size:11.95499992px;font-family:Arial;-inkscape-font-specification:Arial-BoldMT;writing-mode:lr-tb;fill:#ffffff;fill-opacity:1;fill-rule:nonzero;stroke:none"
                 transform="matrix(1,0,0,-1,201.6,-268.74)"><tspan
                   id="tspan1408"
                   y="0"
                   x="0 6.6469798 13.29396 23.252476 31.883986 39.188492 46.492996 53.797501 61.102005 68.406509 75.711014">404NotFound</tspan></text>
</g><g
               transform="translate(201.6,-268.74)"
               id="g1410" /></g></g></g></g><g
       transform="matrix(1.25,0,0,-1.25,182.23726,141.34271)"
       id="g1424"><g
         id="g1426" /><g
         id="g1428" /><g
         id="g1430" /><g
         id="g1432" /><g
         id="g1434"><path
           inkscape:connector-curvature="0"
           id="path1436"
           style="fill:none;stroke:#ff1919;stroke-width:1.19553006;stroke-linecap:round;stroke-linejoin:miter;stroke-miterlimit:10;stroke-dasharray:none;stroke-opacity:1"
           d="m 96.14752,15.69797 -4.01724,14.9985 c -0.53248,1.98823 -2.62948,3.59996 -4.68382,3.59996 l -5.413,0 c -2.05433,0 -4.15135,-1.61173 -4.68382,-3.59996 L 74.15883,18.78345" /><g
           transform="matrix(-0.25923,-0.96782,0.96782,-0.25923,74.15884,18.78345)"
           id="g1438"><g
             id="g1440"><path
               inkscape:connector-curvature="0"
               id="path1442"
               style="fill:#ff1919;fill-opacity:1;fill-rule:nonzero;stroke:none"
               d="M 3.18808,0 -1.91284,2.55046 0,0 -1.91284,-2.55046" /></g></g></g><g
         id="g1444"><g
           id="g1446"><path
             inkscape:connector-curvature="0"
             id="path1448"
             style="fill:#ffd9b3;fill-opacity:1;fill-rule:nonzero;stroke:#b30000;stroke-width:0.79701;stroke-linecap:butt;stroke-linejoin:miter;stroke-miterlimit:10;stroke-dasharray:none;stroke-opacity:1"
             d="m 100.95992,40.80585 -32.43993,0 c -1.10046,0 -1.99255,-0.89209 -1.99255,-1.99255 l 0,-7.94886 c 0,-1.10046 0.89209,-1.99255 1.99255,-1.99255 l 32.43993,0 c 1.10048,0 1.99255,0.89209 1.99255,1.99255 l 0,7.94886 c 0,1.10046 -0.89207,1.99255 -1.99255,1.99255 z" /></g><g
           id="g1450"><g
             transform="scale(-1,-1)"
             id="g1452"><g
               id="g1454" /><g
               transform="matrix(-1,0,0,-1,201.6,-268.74)"
               id="g1456"><g
                 id="g1458" /><g
                 transform="matrix(0.7,0,0,0.7,129.18,-48.5)"
                 id="g1460"><text
                   id="text1462"
                   style="font-variant:normal;font-weight:bold;font-size:11.95499992px;font-family:Arial;-inkscape-font-specification:Arial-BoldMT;writing-mode:lr-tb;fill:#000000;fill-opacity:1;fill-rule:nonzero;stroke:none"
                   transform="matrix(1,0,0,-1,201.6,-268.74)"><tspan
                     id="tspan1464"
                     y="0"
                     x="0 6.6469798 13.951485 20.598465 31.22646 38.530964">advmod</tspan></text>
</g><g
                 transform="translate(201.6,-268.74)"
                 id="g1466" /></g></g></g></g></g></g></svg>