<?xml version="1.0" encoding="UTF-8" standalone="no"?>
<svg
   xmlns:dc="http://purl.org/dc/elements/1.1/"
   xmlns:cc="http://creativecommons.org/ns#"
   xmlns:rdf="http://www.w3.org/1999/02/22-rdf-syntax-ns#"
   xmlns:svg="http://www.w3.org/2000/svg"
   xmlns="http://www.w3.org/2000/svg"
   xmlns:sodipodi="http://sodipodi.sourceforge.net/DTD/sodipodi-0.dtd"
   xmlns:inkscape="http://www.inkscape.org/namespaces/inkscape"
   viewBox="0 0 290.94544 111.68572"
   height="111.68572"
   width="290.94543"
   xml:space="preserve"
   version="1.1"
   id="svg2"
   inkscape:version="0.91 r13725"
   sodipodi:docname="ce.svg"><sodipodi:namedview
     pagecolor="#ffffff"
     bordercolor="#666666"
     borderopacity="1"
     objecttolerance="10"
     gridtolerance="10"
     guidetolerance="10"
     inkscape:pageopacity="0"
     inkscape:pageshadow="2"
     inkscape:window-width="1543"
     inkscape:window-height="737"
     id="namedview10564"
     showgrid="false"
     inkscape:zoom="3.1758532"
     inkscape:cx="267.31385"
     inkscape:cy="86.82527"
     inkscape:window-x="225"
     inkscape:window-y="155"
     inkscape:window-maximized="0"
     inkscape:current-layer="svg2" /><metadata
     id="metadata8"><rdf:RDF><cc:Work
         rdf:about=""><dc:format>image/svg+xml</dc:format><dc:type
           rdf:resource="http://purl.org/dc/dcmitype/StillImage" /><dc:title /></cc:Work></rdf:RDF></metadata><defs
     id="defs6" /><g
     id="g414"
     transform="matrix(1.25,0,0,-1.25,145.49391,98.00161)"><g
       id="g416"><g
         id="g418" /><g
         id="g420" /><g
         id="g422" /><g
         id="g424" /><g
         id="g426"><path
           inkscape:connector-curvature="0"
           id="path428"
           style="fill:none;stroke:#ff1919;stroke-width:1.19553006;stroke-linecap:round;stroke-linejoin:miter;stroke-miterlimit:10;stroke-dasharray:none;stroke-opacity:1"
           d="m -64.59846,15.69797 3.98837,44.6719 c 0.54841,6.14342 5.98903,11.12349 12.15208,11.12349 l 137.59918,0 c 6.16306,0 11.60367,-4.98007 12.1521,-11.12349 l 3.7047,-41.49398" /><g
           transform="matrix(0.08897,-0.99681,0.99681,0.08897,104.99797,18.87589)"
           id="g430"><g
             id="g432"><path
               inkscape:connector-curvature="0"
               id="path434"
               style="fill:#ff1919;fill-opacity:1;fill-rule:nonzero;stroke:none"
               d="M 3.18808,0 -1.91284,2.55046 0,0 -1.91284,-2.55046" /></g></g></g><g
         id="g436"><g
           id="g438"><path
             inkscape:connector-curvature="0"
             id="path440"
             style="fill:#fff2e6;fill-opacity:1;fill-rule:nonzero;stroke:#000000;stroke-width:0.79701;stroke-linecap:butt;stroke-linejoin:miter;stroke-miterlimit:10;stroke-dasharray:none;stroke-opacity:1"
             d="m 31.90727,78.00278 -23.13139,0 c -1.10046,0 -1.99255,-0.89209 -1.99255,-1.99256 l 0,-7.94885 c 0,-1.10047 0.89209,-1.99255 1.99255,-1.99255 l 23.13139,0 c 1.10048,0 1.99256,0.89208 1.99256,1.99255 l 0,7.94885 c 0,1.10047 -0.89208,1.99256 -1.99256,1.99256 z" /></g><g
           id="g442"><g
             transform="scale(-1,-1)"
             id="g444"><g
               id="g446" /><g
               transform="matrix(-1,0,0,-1,172.54,-135.19)"
               id="g448"><g
                 id="g450" /><g
                 transform="matrix(0.7,0,0,0.7,60.72,28.77)"
                 id="g452"><text
                   id="text454"
                   style="font-variant:normal;font-weight:bold;font-size:11.95499992px;font-family:Arial;-inkscape-font-specification:Arial-BoldMT;writing-mode:lr-tb;fill:#000000;fill-opacity:1;fill-rule:nonzero;stroke:none"
                   transform="matrix(1,0,0,-1,172.54,-135.19)"><tspan
                     id="tspan456"
                     y="0"
                     x="0 7.3045049 17.932501 25.237005">nmod</tspan></text>
</g><g
                 transform="translate(172.54,-135.19)"
                 id="g458" /></g></g></g></g></g></g><g
     id="g322"
     transform="matrix(1.25,0,0,-1.25,145.49391,98.00161)"><g
       id="g324"><g
         id="g326" /><g
         id="g328" /><g
         id="g330" /><g
         id="g332" /><g
         id="g334"><path
           inkscape:connector-curvature="0"
           id="path336"
           style="fill:none;stroke:#ff1919;stroke-width:1.19553006;stroke-linecap:round;stroke-linejoin:miter;stroke-miterlimit:10;stroke-dasharray:none;stroke-opacity:1"
           d="m -72.56868,15.69797 -4.01724,14.9985 c -0.53248,1.98823 -2.62949,3.59996 -4.68382,3.59996 l -19.07409,0 c -2.05433,0 -4.15133,-1.61173 -4.68382,-3.59996 l -3.19081,-11.91302" /><g
           transform="matrix(-0.25923,-0.96782,0.96782,-0.25923,-108.21844,18.78345)"
           id="g338"><g
             id="g340"><path
               inkscape:connector-curvature="0"
               id="path342"
               style="fill:#ff1919;fill-opacity:1;fill-rule:nonzero;stroke:none"
               d="M 3.18808,0 -1.91284,2.55046 0,0 -1.91284,-2.55046" /></g></g></g><g
         id="g344"><g
           id="g346"><path
             inkscape:connector-curvature="0"
             id="path348"
             style="fill:#fff2e6;fill-opacity:1;fill-rule:nonzero;stroke:#000000;stroke-width:0.79701;stroke-linecap:butt;stroke-linejoin:miter;stroke-miterlimit:10;stroke-dasharray:none;stroke-opacity:1"
             d="m -84.353,40.80585 -12.90754,0 c -1.10048,0 -1.99256,-0.89209 -1.99256,-1.99255 l 0,-7.94886 c 0,-1.10046 0.89208,-1.99255 1.99256,-1.99255 l 12.90754,0 c 1.10047,0 1.99256,0.89209 1.99256,1.99255 l 0,7.94886 c 0,1.10046 -0.89209,1.99255 -1.99256,1.99255 z" /></g><g
           id="g350"><g
             transform="scale(-1,-1)"
             id="g352"><g
               id="g354" /><g
               transform="matrix(-1,0,0,-1,172.54,-135.19)"
               id="g356"><g
                 id="g358" /><g
                 transform="matrix(0.7,0,0,0.7,-45.32,-8.43)"
                 id="g360"><text
                   id="text362"
                   style="font-variant:normal;font-weight:bold;font-size:11.95499992px;font-family:Arial;-inkscape-font-specification:Arial-BoldMT;writing-mode:lr-tb;fill:#000000;fill-opacity:1;fill-rule:nonzero;stroke:none"
                   transform="matrix(1,0,0,-1,172.54,-135.19)"><tspan
                     id="tspan364"
                     y="0"
                     x="0 7.3045049 13.951485">det</tspan></text>
</g><g
                 transform="translate(172.54,-135.19)"
                 id="g366" /></g></g></g></g></g></g><g
     id="g22"
     transform="matrix(1.25,0,0,-1.25,145.49391,98.00161)"><path
       inkscape:connector-curvature="0"
       id="path24"
       style="fill:#ff9933;fill-opacity:1;fill-rule:nonzero;stroke:#ff0000;stroke-width:0.3985;stroke-linecap:butt;stroke-linejoin:miter;stroke-miterlimit:10;stroke-dasharray:none;stroke-opacity:1"
       d="m -52.32422,15.69797 -32.51869,0 c -1.10048,0 -1.99255,-0.89209 -1.99255,-1.99256 l 0,-13.46199 c 0,-1.10046 0.89207,-1.99253 1.99255,-1.99253 l 32.51869,0 c 1.10048,0 1.99255,0.89207 1.99255,1.99253 l 0,13.46199 c 0,1.10047 -0.89207,1.99256 -1.99255,1.99256 z" /></g><g
     id="g26"
     transform="matrix(1.25,0,0,-1.25,145.49391,98.00161)"><g
       transform="scale(-1,-1)"
       id="g28"><g
         id="g30" /><g
         transform="matrix(-1,0,0,-1,172.54,-135.19)"
         id="g32"><g
           id="g34" /><g
           transform="translate(-86.84,6.97)"
           id="g36" /><g
           transform="translate(172.54,-135.19)"
           id="g38" /></g></g></g><g
     id="g42"
     transform="matrix(1.25,0,0,-1.25,145.49391,98.00161)"><path
       inkscape:connector-curvature="0"
       id="path44"
       style="fill:#ff9933;fill-opacity:1;fill-rule:nonzero;stroke:#ff0000;stroke-width:0.3985;stroke-linecap:butt;stroke-linejoin:miter;stroke-miterlimit:10;stroke-dasharray:none;stroke-opacity:1"
       d="m 77.31638,15.69797 -52.4423,0 c -1.10048,0 -1.99255,-0.89209 -1.99255,-1.99256 l 0,-13.46199 c 0,-1.10046 0.89207,-1.99253 1.99255,-1.99253 l 52.4423,0 c 1.10046,0 1.99255,0.89207 1.99255,1.99253 l 0,13.46199 c 0,1.10047 -0.89209,1.99256 -1.99255,1.99256 z" /></g><g
     id="g46"
     transform="matrix(1.25,0,0,-1.25,145.49391,98.00161)"><g
       transform="scale(-1,-1)"
       id="g48"><g
         id="g50" /><g
         transform="matrix(-1,0,0,-1,172.54,-135.19)"
         id="g52"><g
           id="g54" /><g
           transform="translate(22.88,6.97)"
           id="g56" /><g
           transform="translate(172.54,-135.19)"
           id="g58" /></g></g></g><g
     id="g64"
     transform="matrix(1.25,0,0,-1.25,145.49391,98.00161)"><g
       id="g66"><g
         id="g68"><g
           transform="scale(-1,-1)"
           id="g70"><g
             id="g72" /><g
             transform="matrix(-1,0,0,-1,172.54,-135.19)"
             id="g74"><g
               id="g76" /><g
               transform="translate(-120.11,-10.85)"
               id="g78"><g
                 transform="translate(183.61,-121.24)"
                 id="g80"><g
                   id="g82"><g
                     id="g84"><g
                       id="g86"><g
                         transform="scale(-1,-1)"
                         id="g88"><g
                           id="g90" /><g
                           transform="matrix(-1,0,0,-1,183.61,-121.24)"
                           id="g92"><g
                             id="g94" /><g
                             transform="translate(-7.31,0)"
                             id="g96"><text
                               id="text98"
                               style="font-variant:normal;font-weight:normal;font-size:11.95499992px;font-family:Arial;-inkscape-font-specification:ArialMT;writing-mode:lr-tb;fill:#000000;fill-opacity:1;fill-rule:nonzero;stroke:none"
                               transform="matrix(1,0,0,-1,183.61,-121.24)"><tspan
                                 id="tspan100"
                                 y="0"
                                 x="0 7.9739852">An</tspan></text>
</g><g
                             transform="translate(183.61,-121.24)"
                             id="g102" /></g></g></g></g></g></g><g
                 transform="translate(224.07,-121.24)"
                 id="g104"><g
                   id="g106"><g
                     id="g108"><g
                       id="g110"><g
                         transform="scale(-1,-1)"
                         id="g112"><g
                           id="g114" /><g
                           transform="matrix(-1,0,0,-1,224.07,-121.24)"
                           id="g116"><g
                             id="g118" /><g
                             transform="translate(-14.95,0)"
                             id="g120"><text
                               id="text122"
                               style="font-variant:normal;font-weight:normal;font-size:11.95499992px;font-family:Arial;-inkscape-font-specification:ArialMT;writing-mode:lr-tb;fill:#000000;fill-opacity:1;fill-rule:nonzero;stroke:none"
                               transform="matrix(1,0,0,-1,224.07,-121.24)"><tspan
                                 id="tspan124"
                                 y="0"
                                 x="0 6.6469798 13.29396 15.94797 19.27146 25.91844">editor</tspan></text>
</g><g
                             transform="translate(224.07,-121.24)"
                             id="g126" /></g></g></g></g></g></g><g
                 transform="translate(293.1,-121.24)"
                 id="g128"><g
                   id="g130"><g
                     id="g132"><g
                       id="g134"><g
                         transform="scale(-1,-1)"
                         id="g136"><g
                           id="g138" /><g
                           transform="matrix(-1,0,0,-1,293.1,-121.24)"
                           id="g140"><g
                             id="g142" /><g
                             transform="translate(-6.98,0)"
                             id="g144"><text
                               id="text146"
                               style="font-variant:normal;font-weight:normal;font-size:11.95499992px;font-family:Arial;-inkscape-font-specification:ArialMT;writing-mode:lr-tb;fill:#000000;fill-opacity:1;fill-rule:nonzero;stroke:none"
                               transform="matrix(1,0,0,-1,293.1,-121.24)"><tspan
                                 id="tspan148"
                                 y="0"
                                 x="0 3.3234899 9.9704704">for</tspan></text>
</g><g
                             transform="translate(293.1,-121.24)"
                             id="g150" /></g></g></g></g></g></g><g
                 transform="translate(343.75,-121.24)"
                 id="g152"><g
                   id="g154"><g
                     id="g156"><g
                       id="g158"><g
                         transform="scale(-1,-1)"
                         id="g160"><g
                           id="g162" /><g
                           transform="matrix(-1,0,0,-1,343.75,-121.24)"
                           id="g164"><g
                             id="g166" /><g
                             transform="translate(-24.91,0)"
                             id="g168"><text
                               id="text170"
                               style="font-variant:normal;font-weight:normal;font-size:11.95499992px;font-family:Arial;-inkscape-font-specification:ArialMT;writing-mode:lr-tb;fill:#000000;fill-opacity:1;fill-rule:nonzero;stroke:none"
                               transform="matrix(1,0,0,-1,343.75,-121.24)"><tspan
                                 id="tspan172"
                                 y="0"
                                 x="0 8.6315098 15.27849 23.91 30.55698 37.20396 41.184975">CoNLL-U</tspan></text>
</g><g
                             transform="translate(343.75,-121.24)"
                             id="g174" /></g></g></g></g></g></g><g
                 transform="translate(397.93,-121.24)"
                 id="g176"><g
                   id="g178"><g
                     id="g180"><g
                       id="g182"><g
                         transform="scale(-1,-1)"
                         id="g184"><g
                           id="g186" /><g
                           transform="matrix(-1,0,0,-1,397.93,-121.24)"
                           id="g188"><g
                             id="g190" /><g
                             transform="translate(-10.63,0)"
                             id="g192"><text
                               id="text194"
                               style="font-variant:normal;font-weight:normal;font-size:11.95499992px;font-family:Arial;-inkscape-font-specification:ArialMT;writing-mode:lr-tb;fill:#000000;fill-opacity:1;fill-rule:nonzero;stroke:none"
                               transform="matrix(1,0,0,-1,397.93,-121.24)"><tspan
                                 id="tspan196"
                                 y="0"
                                 x="0 3.3234899 5.9775 8.6315098 15.27849">files</tspan></text>
</g><g
                             transform="translate(397.93,-121.24)"
                             id="g198" /></g></g></g></g></g></g><g
                 transform="translate(183.61,-135.19)"
                 id="g200"><g
                   id="g202"><g
                     id="g204"><g
                       id="g206"><g
                         transform="scale(-1,-1)"
                         id="g208"><g
                           id="g210" /><g
                           transform="matrix(-1,0,0,-1,183.61,-135.19)"
                           id="g212"><g
                             id="g214" /><g
                             transform="translate(-7.97,0)"
                             id="g216"><text
                               id="text218"
                               style="font-variant:normal;font-weight:normal;font-size:7.96999979px;font-family:Arial;-inkscape-font-specification:ArialMT;writing-mode:lr-tb;fill:#000000;fill-opacity:1;fill-rule:nonzero;stroke:none"
                               transform="matrix(1,0,0,-1,183.61,-135.19)"><tspan
                                 id="tspan220"
                                 y="0"
                                 x="0 5.7543402 11.07033">DET</tspan></text>
</g><g
                             transform="translate(183.61,-135.19)"
                             id="g222" /></g></g></g></g></g></g><g
                 transform="translate(224.07,-135.19)"
                 id="g224"><g
                   id="g226"><g
                     id="g228"><g
                       id="g230"><g
                         transform="scale(-1,-1)"
                         id="g232"><g
                           id="g234" /><g
                           transform="matrix(-1,0,0,-1,224.07,-135.19)"
                           id="g236"><g
                             id="g238" /><g
                             transform="translate(-11.73,0)"
                             id="g240"><text
                               id="text242"
                               style="font-variant:normal;font-weight:normal;font-size:7.96999979px;font-family:Arial;-inkscape-font-specification:ArialMT;writing-mode:lr-tb;fill:#000000;fill-opacity:1;fill-rule:nonzero;stroke:none"
                               transform="matrix(1,0,0,-1,224.07,-135.19)"><tspan
                                 id="tspan244"
                                 y="0"
                                 x="0 5.7543402 11.955 17.709339">NOUN</tspan></text>
</g><g
                             transform="translate(224.07,-135.19)"
                             id="g246" /></g></g></g></g></g></g><g
                 transform="translate(293.1,-135.19)"
                 id="g248"><g
                   id="g250"><g
                     id="g252"><g
                       id="g254"><g
                         transform="scale(-1,-1)"
                         id="g256"><g
                           id="g258" /><g
                           transform="matrix(-1,0,0,-1,293.1,-135.19)"
                           id="g260"><g
                             id="g262" /><g
                             transform="translate(-8.19,0)"
                             id="g264"><text
                               id="text266"
                               style="font-variant:normal;font-weight:normal;font-size:7.96999979px;font-family:Arial;-inkscape-font-specification:ArialMT;writing-mode:lr-tb;fill:#000000;fill-opacity:1;fill-rule:nonzero;stroke:none"
                               transform="matrix(1,0,0,-1,293.1,-135.19)"><tspan
                                 id="tspan268"
                                 y="0"
                                 x="0 5.31599 11.07033">ADP</tspan></text>
</g><g
                             transform="translate(293.1,-135.19)"
                             id="g270" /></g></g></g></g></g></g><g
                 transform="translate(343.75,-135.19)"
                 id="g272"><g
                   id="g274"><g
                     id="g276"><g
                       id="g278"><g
                         transform="scale(-1,-1)"
                         id="g280"><g
                           id="g282" /><g
                           transform="matrix(-1,0,0,-1,343.75,-135.19)"
                           id="g284"><g
                             id="g286" /><g
                             transform="translate(-14.17,0)"
                             id="g288"><text
                               id="text290"
                               style="font-variant:normal;font-weight:normal;font-size:7.96999979px;font-family:Arial;-inkscape-font-specification:ArialMT;writing-mode:lr-tb;fill:#000000;fill-opacity:1;fill-rule:nonzero;stroke:none"
                               transform="matrix(1,0,0,-1,343.75,-135.19)"><tspan
                                 id="tspan292"
                                 y="0"
                                 x="0 5.31599 11.07033 17.27099 22.586981">PROPN</tspan></text>
</g><g
                             transform="translate(343.75,-135.19)"
                             id="g294" /></g></g></g></g></g></g><g
                 transform="translate(397.93,-135.19)"
                 id="g296"><g
                   id="g298"><g
                     id="g300"><g
                       id="g302"><g
                         transform="scale(-1,-1)"
                         id="g304"><g
                           id="g306" /><g
                           transform="matrix(-1,0,0,-1,397.93,-135.19)"
                           id="g308"><g
                             id="g310" /><g
                             transform="translate(-11.73,0)"
                             id="g312"><text
                               id="text314"
                               style="font-variant:normal;font-weight:normal;font-size:7.96999979px;font-family:Arial;-inkscape-font-specification:ArialMT;writing-mode:lr-tb;fill:#000000;fill-opacity:1;fill-rule:nonzero;stroke:none"
                               transform="matrix(1,0,0,-1,397.93,-135.19)"><tspan
                                 id="tspan316"
                                 y="0"
                                 x="0 5.7543402 11.955 17.709339">NOUN</tspan></text>
</g><g
                             transform="translate(397.93,-135.19)"
                             id="g318" /></g></g></g></g></g></g></g><g
               transform="translate(172.54,-135.19)"
               id="g320" /></g></g></g></g></g><g
     id="g368"
     transform="matrix(1.25,0,0,-1.25,145.49391,98.00161)"><g
       id="g370"><g
         id="g372" /><g
         id="g374" /><g
         id="g376" /><g
         id="g378" /><g
         id="g380"><path
           inkscape:connector-curvature="0"
           id="path382"
           style="fill:none;stroke:#ff1919;stroke-width:1.19553006;stroke-linecap:round;stroke-linejoin:miter;stroke-miterlimit:10;stroke-dasharray:none;stroke-opacity:1"
           d="m 101.29652,15.69797 -3.99357,29.81965 c -0.54556,4.07441 -4.31848,7.37728 -8.42719,7.37728 l -76.00666,0 c -4.10871,0 -7.88164,-3.30287 -8.42719,-7.37728 L 0.87164,18.85944" /><g
           transform="matrix(-0.13278,-0.99165,0.99165,-0.13278,0.87166,18.85945)"
           id="g384"><g
             id="g386"><path
               inkscape:connector-curvature="0"
               id="path388"
               style="fill:#ff1919;fill-opacity:1;fill-rule:nonzero;stroke:none"
               d="M 3.18808,0 -1.91284,2.55046 0,0 -1.91284,-2.55046" /></g></g></g><g
         id="g390"><g
           id="g392"><path
             inkscape:connector-curvature="0"
             id="path394"
             style="fill:#fff2e6;fill-opacity:1;fill-rule:nonzero;stroke:#000000;stroke-width:0.79701;stroke-linecap:butt;stroke-linejoin:miter;stroke-miterlimit:10;stroke-dasharray:none;stroke-opacity:1"
             d="m 60.35822,59.40431 -18.97158,0 c -1.10046,0 -1.99255,-0.89209 -1.99255,-1.99255 l 0,-7.94886 c 0,-1.10046 0.89209,-1.99255 1.99255,-1.99255 l 18.97158,0 c 1.10048,0 1.99255,0.89209 1.99255,1.99255 l 0,7.94886 c 0,1.10046 -0.89207,1.99255 -1.99255,1.99255 z" /></g><g
           id="g396"><g
             transform="scale(-1,-1)"
             id="g398"><g
               id="g400" /><g
               transform="matrix(-1,0,0,-1,172.54,-135.19)"
               id="g402"><g
                 id="g404" /><g
                 transform="matrix(0.7,0,0,0.7,93.33,10.17)"
                 id="g406"><text
                   id="text408"
                   style="font-variant:normal;font-weight:bold;font-size:11.95499992px;font-family:Arial;-inkscape-font-specification:Arial-BoldMT;writing-mode:lr-tb;fill:#000000;fill-opacity:1;fill-rule:nonzero;stroke:none"
                   transform="matrix(1,0,0,-1,172.54,-135.19)"><tspan
                     id="tspan410"
                     y="0"
                     x="0 6.6469798 13.29396 19.940941">case</tspan></text>
</g><g
                 transform="translate(172.54,-135.19)"
                 id="g412" /></g></g></g></g></g></g><g
     id="g460"
     transform="matrix(1.25,0,0,-1.25,145.49391,98.00161)"><g
       id="g462"><g
         id="g464" /><g
         id="g466" /><g
         id="g468" /><g
         id="g470" /><g
         id="g472"><path
           inkscape:connector-curvature="0"
           id="path474"
           style="fill:none;stroke:#ff1919;stroke-width:1.19553006;stroke-linecap:round;stroke-linejoin:miter;stroke-miterlimit:10;stroke-dasharray:none;stroke-opacity:1"
           d="m 101.29652,15.69797 -4.01724,14.9985 c -0.53248,1.98823 -2.62948,3.59996 -4.68382,3.59996 l -32.79916,0 c -2.05434,0 -4.15136,-1.61173 -4.68383,-3.59996 L 51.92166,18.78345" /><g
           transform="matrix(-0.25923,-0.96782,0.96782,-0.25923,51.92168,18.78345)"
           id="g476"><g
             id="g478"><path
               inkscape:connector-curvature="0"
               id="path480"
               style="fill:#ff1919;fill-opacity:1;fill-rule:nonzero;stroke:none"
               d="M 3.18808,0 -1.91284,2.55046 0,0 -1.91284,-2.55046" /></g></g></g><g
         id="g482"><g
           id="g484"><path
             inkscape:connector-curvature="0"
             id="path486"
             style="fill:#fff2e6;fill-opacity:1;fill-rule:nonzero;stroke:#000000;stroke-width:0.79701;stroke-linecap:butt;stroke-linejoin:miter;stroke-miterlimit:10;stroke-dasharray:none;stroke-opacity:1"
             d="m 97.75659,40.80585 -43.12144,0 c -1.10048,0 -1.99255,-0.89209 -1.99255,-1.99255 l 0,-7.94886 c 0,-1.10046 0.89207,-1.99255 1.99255,-1.99255 l 43.12144,0 c 1.10047,0 1.99256,0.89209 1.99256,1.99255 l 0,7.94886 c 0,1.10046 -0.89209,1.99255 -1.99256,1.99255 z" /></g><g
           id="g488"><g
             transform="scale(-1,-1)"
             id="g490"><g
               id="g492" /><g
               transform="matrix(-1,0,0,-1,172.54,-135.19)"
               id="g494"><g
                 id="g496" /><g
                 transform="matrix(0.7,0,0,0.7,106.57,-8.43)"
                 id="g498"><text
                   id="text500"
                   style="font-variant:normal;font-weight:bold;font-size:11.95499992px;font-family:Arial;-inkscape-font-specification:Arial-BoldMT;writing-mode:lr-tb;fill:#000000;fill-opacity:1;fill-rule:nonzero;stroke:none"
                   transform="matrix(1,0,0,-1,172.54,-135.19)"><tspan
                     id="tspan502"
                     y="0"
                     x="0 6.6469798 13.951485 24.579479 31.883986 39.188492 46.492996 53.797501">compound</tspan></text>
</g><g
                 transform="translate(172.54,-135.19)"
                 id="g504" /></g></g></g></g></g></g><g
     id="g506"
     transform="matrix(1.25,0,0,-1.25,145.49391,98.00161)" /><g
     id="g508"
     transform="matrix(1.25,0,0,-1.25,145.49391,98.00161)" /></svg>