<?xml version="1.0" encoding="UTF-8" standalone="no"?>
<svg
   xmlns:dc="http://purl.org/dc/elements/1.1/"
   xmlns:cc="http://creativecommons.org/ns#"
   xmlns:rdf="http://www.w3.org/1999/02/22-rdf-syntax-ns#"
   xmlns:svg="http://www.w3.org/2000/svg"
   xmlns="http://www.w3.org/2000/svg"
   viewBox="0 0 130.33739 54.189966"
   height="54.189968"
   width="130.33739"
   xml:space="preserve"
   version="1.1"
   id="svg2"><metadata
     id="metadata8"><rdf:RDF><cc:Work
         rdf:about=""><dc:format>image/svg+xml</dc:format><dc:type
           rdf:resource="http://purl.org/dc/dcmitype/StillImage" /><dc:title></dc:title></cc:Work></rdf:RDF></metadata><defs
     id="defs6" /><g
     transform="matrix(1.25,0,0,-1.25,-155.03131,767.77398)"
     id="g10"><path
       id="path640"
       style="fill:none;stroke:#ff1919;stroke-width:1.99255002;stroke-linecap:round;stroke-linejoin:miter;stroke-miterlimit:10;stroke-dasharray:none;stroke-opacity:1"
       d="m 205.8587,588.51354 -4.01724,14.99851 c -0.53249,1.98822 -2.62949,3.59995 -4.68383,3.59995 l -36.01857,0 c -2.05433,0 -4.15133,-1.61173 -4.68382,-3.59995 l -2.88086,-10.75594" /><g
       transform="translate(176.16,579.79)"
       id="g516"><g
         id="g518"><path
           id="path520"
           style="fill:#ff9933;fill-opacity:1;fill-rule:nonzero;stroke:#ff0000;stroke-width:0.3985;stroke-linecap:butt;stroke-linejoin:miter;stroke-miterlimit:10;stroke-dasharray:none;stroke-opacity:1"
           d="m 2.49913,8.72354 -52.44228,0 c -1.10046,0 -1.99255,-0.89209 -1.99255,-1.99255 l 0,-13.46198 c 0,-1.10046 0.89209,-1.99255 1.99255,-1.99255 l 52.44228,0 c 1.10048,0 1.99255,0.89209 1.99255,1.99255 l 0,13.46198 c 0,1.10046 -0.89207,1.99255 -1.99255,1.99255 z" /></g><g
         id="g522"><g
           transform="scale(-1,-1)"
           id="g524"><g
             id="g526" /><g
             transform="matrix(-1,0,0,-1,104.16,-190.1)"
             id="g528"><g
               id="g530" /><g
               transform="translate(-51.94,0)"
               id="g532" /><g
               transform="translate(104.16,-190.1)"
               id="g534" /></g></g></g></g><g
       transform="translate(176.16,579.79)"
       id="g536"><g
         id="g538"><path
           id="path540"
           style="fill:#ff9933;fill-opacity:1;fill-rule:nonzero;stroke:#ff0000;stroke-width:0.3985;stroke-linecap:butt;stroke-linejoin:miter;stroke-miterlimit:10;stroke-dasharray:none;stroke-opacity:1"
           d="m 49.94316,8.72354 -32.51871,0 c -1.10046,0 -1.99255,-0.89209 -1.99255,-1.99255 l 0,-13.46198 c 0,-1.10046 0.89209,-1.99255 1.99255,-1.99255 l 32.51871,0 c 1.10046,0 1.99255,0.89209 1.99255,1.99255 l 0,13.46198 c 0,1.10046 -0.89209,1.99255 -1.99255,1.99255 z" /></g><g
         id="g542"><g
           transform="scale(-1,-1)"
           id="g544"><g
             id="g546" /><g
             transform="matrix(-1,0,0,-1,104.16,-190.1)"
             id="g548"><g
               id="g550" /><g
               transform="translate(15.43,0)"
               id="g552" /><g
               transform="translate(104.16,-190.1)"
               id="g554" /></g></g></g></g><g
       transform="translate(176.16,579.79)"
       id="g564"><g
         id="g566"
         transform="scale(-1,-1)"><g
           id="g568" /><g
           id="g570"
           transform="matrix(-1,0,0,-1,104.16,-190.1)"><g
             id="g572" /><g
             id="g574"
             transform="translate(-51.74,-3.87)"><g
               id="g576"
               transform="translate(132.18,-190.1)"><g
                 id="g578"><g
                   id="g580"><g
                     id="g582"><g
                       id="g584"
                       transform="scale(-1,-1)"><g
                         id="g586" /><g
                         id="g588"
                         transform="matrix(-1,0,0,-1,132.18,-190.1)"><g
                           id="g590" /><g
                           id="g592"
                           transform="translate(-24.91,0)"><text
                             transform="matrix(1,0,0,-1,132.18,-190.1)"
                             style="font-variant:normal;font-weight:normal;font-size:11.95499992px;font-family:Arial;-inkscape-font-specification:ArialMT;writing-mode:lr-tb;fill:#000000;fill-opacity:1;fill-rule:nonzero;stroke:none"
                             id="text594"><tspan
                               x="0 8.6315098 15.27849 23.91 30.55698 37.20396 41.184975"
                               y="0"
                               id="tspan596">CoNLL-U</tspan></text>
</g><g
                           id="g598"
                           transform="translate(132.18,-190.1)" /></g></g></g></g></g></g><g
               id="g600"
               transform="translate(189.58,-190.1)"><g
                 id="g602"><g
                   id="g604"><g
                     id="g606"><g
                       id="g608"
                       transform="scale(-1,-1)"><g
                         id="g610" /><g
                         id="g612"
                         transform="matrix(-1,0,0,-1,189.58,-190.1)"><g
                           id="g614" /><g
                           id="g616"
                           transform="translate(-14.95,0)"><text
                             transform="matrix(1,0,0,-1,189.58,-190.1)"
                             style="font-variant:normal;font-weight:normal;font-size:11.95499992px;font-family:Arial;-inkscape-font-specification:ArialMT;writing-mode:lr-tb;fill:#000000;fill-opacity:1;fill-rule:nonzero;stroke:none"
                             id="text618"><tspan
                               x="0 6.6469798 13.29396 15.94797 19.27146 25.91844"
                               y="0"
                               id="tspan620">editor</tspan></text>
</g><g
                           id="g622"
                           transform="translate(189.58,-190.1)" /></g></g></g></g></g></g></g><g
             id="g624"
             transform="translate(104.16,-190.1)" /></g></g></g><g
       transform="translate(176.16,579.79)"
       id="g630" /><g
       transform="translate(176.16,579.79)"
       id="g632" /><g
       transform="translate(176.16,579.79)"
       id="g634" /><g
       transform="translate(176.16,579.79)"
       id="g636" /><g
       transform="matrix(-0.25923,-0.96782,0.96782,-0.25923,153.57438,592.75611)"
       id="g642"><g
         id="g644"><path
           id="path646"
           style="fill:#ff1919;fill-opacity:1;fill-rule:nonzero;stroke:none"
           d="M 4.38364,0 -2.63017,3.50691 0,0 -2.63017,-3.50691" /></g></g><g
       transform="translate(176.16,579.79)"
       id="g648"><g
         id="g650"><path
           d="m 14.55405,33.83142 -23.13138,0 c -1.10047,0 -1.99256,-0.89209 -1.99256,-1.99255 l 0,-7.94884 c 0,-1.10048 0.89209,-1.99255 1.99256,-1.99255 l 23.13138,0 c 1.10048,0 1.99255,0.89207 1.99255,1.99255 l 0,7.94884 c 0,1.10046 -0.89207,1.99255 -1.99255,1.99255 z"
           style="fill:#fff2e6;fill-opacity:1;fill-rule:nonzero;stroke:#000000;stroke-width:1.19553006;stroke-linecap:butt;stroke-linejoin:miter;stroke-miterlimit:10;stroke-dasharray:none;stroke-opacity:1"
           id="path652" /></g><g
         id="g654"><g
           id="g656"
           transform="scale(-1,-1)"><g
             id="g658" /><g
             id="g660"
             transform="matrix(-1,0,0,-1,104.16,-190.1)"><g
               id="g662" /><g
               id="g664"
               transform="matrix(0.7,0,0,0.7,22.85,-31.88)"><text
                 transform="matrix(1,0,0,-1,104.16,-190.1)"
                 style="font-variant:normal;font-weight:bold;font-size:11.95499992px;font-family:Arial;-inkscape-font-specification:Arial-BoldMT;writing-mode:lr-tb;fill:#000000;fill-opacity:1;fill-rule:nonzero;stroke:none"
                 id="text666"><tspan
                   x="0 7.3045049 17.932501 25.237005"
                   y="0"
                   id="tspan668">nmod</tspan></text>
</g><g
               id="g670"
               transform="translate(104.16,-190.1)" /></g></g></g></g></g></svg>