<?xml version="1.0" encoding="UTF-8" standalone="no"?>
<!-- Uploaded to: SVG Repo, www.svgrepo.com, Generator: SVG Repo Mixer Tools -->

<svg
   height="959.99731"
   width="816.76031"
   version="1.1"
   id="Capa_1"
   viewBox="0 0 285.54145 335.61747"
   xml:space="preserve"
   sodipodi:docname="light-bulb.svg"
   inkscape:version="1.2.2 (b0a8486541, 2022-12-01)"
   xmlns:inkscape="http://www.inkscape.org/namespaces/inkscape"
   xmlns:sodipodi="http://sodipodi.sourceforge.net/DTD/sodipodi-0.dtd"
   xmlns="http://www.w3.org/2000/svg"
   xmlns:svg="http://www.w3.org/2000/svg"><defs
   id="defs21">
	
	
	
	
	
	
	
</defs><sodipodi:namedview
   id="namedview19"
   pagecolor="#ffffff"
   bordercolor="#666666"
   borderopacity="1.0"
   inkscape:showpageshadow="2"
   inkscape:pageopacity="0.0"
   inkscape:pagecheckerboard="0"
   inkscape:deskcolor="#d1d1d1"
   showgrid="false"
   inkscape:zoom="0.74422989"
   inkscape:cx="108.83734"
   inkscape:cy="495.14271"
   inkscape:window-width="1854"
   inkscape:window-height="1011"
   inkscape:window-x="66"
   inkscape:window-y="32"
   inkscape:window-maximized="1"
   inkscape:current-layer="Capa_1"
   showguides="false" />
<path
   style="fill:#ff00fe;fill-opacity:1;stroke:#ff00fe;stroke-width:11.432;stroke-dasharray:none;stroke-opacity:1"
   d="m 143.03427,68.770895 c -41.06,0 -74.465004,33.405005 -74.465004,74.465005 0,16.824 5.511,32.711 15.938,45.939 1.998,2.536 4.15,5.033 6.23,7.448 6.212,7.208 12.078004,14.017 14.166004,21.675 0.045,0.165 0.438,1.773 0.38,7.247 l -0.01,0.791 c -0.063,4.444 -0.147,10.528 4.352,15.091 3.081,3.125 7.399,4.645 13.204,4.645 h 40.272 c 6.268,0 10.774,-1.534 13.776,-4.689 4.061,-4.267 3.789,-9.779 3.608,-13.427 -0.032,-0.645 -0.066,-1.296 -0.074,-1.944 -0.065,-5.48 0.345,-7.025 0.362,-7.09 2.121,-7.657 8.993,-15.732 15.057,-22.855 2.023,-2.377 3.934,-4.622 5.714,-6.879 10.431,-13.23 15.944,-29.12 15.944,-45.951 0.001,-41.06 -33.399,-74.466005 -74.454,-74.466005 z m 46.732,111.128005 c -1.607,2.036 -3.429,4.178 -5.358,6.445 -7.07,8.307 -15.084,17.722 -18.089,28.572 -0.429,1.546 -0.988,4.395 -0.905,11.273 0.01,0.835 0.049,1.675 0.091,2.507 0.032,0.657 0.075,1.523 0.071,2.209 -0.528,0.086 -1.325,0.166 -2.475,0.166 h -40.272 c -1.276,0 -2.022,-0.135 -2.405,-0.237 -0.198,-0.977 -0.17,-3.007 -0.152,-4.287 l 0.012,-0.844 c 0.072,-6.919 -0.483,-9.789 -0.907,-11.348 -2.98,-10.936 -10.575,-19.749 -17.275,-27.524 -2.066,-2.398 -4.019004,-4.664 -5.813004,-6.942 -8.32,-10.557 -12.718,-23.232 -12.718,-36.654 0,-32.789 26.676004,-59.465005 59.465004,-59.465005 32.783,0 59.455,26.676005 59.455,59.465005 -0.002,13.429 -4.401,26.108 -12.725,36.664 z"
   id="path2" /><path
   style="fill:#000002;stroke:#000006;stroke-width:6.99205;stroke-dasharray:none;stroke-opacity:1"
   d="m 161.55027,261.93863 h -37.041 c -7.995,0 -14.5,6.505 -14.5,14.5 v 41.18282 c 0,7.995 6.505,14.5 14.5,14.5 h 37.041 c 7.995,0 14.5,-6.505 14.5,-14.5 v -41.18282 c 0,-7.995 -6.505,-14.5 -14.5,-14.5 z m -0.5,55.18382 h -36.041 v -40.18282 h 36.041 z"
   id="path4"
   sodipodi:nodetypes="sssssssssccccc" /><path
   style="fill:#ff00fe;fill-opacity:1;stroke:#ff00fe;stroke-width:6.99205;stroke-dasharray:none;stroke-opacity:1"
   d="m 143.02925,49.275025 c 4.143,0 7.5,-3.357 7.5,-7.5 v -30.779 c 0,-4.1429999 -3.357,-7.4999999 -7.5,-7.4999999 -4.143,0 -7.5,3.357 -7.5,7.4999999 v 30.779 c 0,4.143 3.35802,7.5 7.5,7.5 z"
   id="path6" /><path
   style="fill:#ff00fe;fill-opacity:1;stroke:#ff00fe;stroke-width:6.99205;stroke-dasharray:none;stroke-opacity:1"
   d="m 177.63851,55.144434 c 3.82763,1.585457 8.21379,-0.231338 9.79921,-4.058971 l 11.77861,-28.436088 c 1.58547,-3.827633 -0.23133,-8.213765 -4.05896,-9.799222 -3.82763,-1.585458 -8.21379,0.231338 -9.79921,4.05897 l -11.77862,28.436088 c -1.58546,3.827633 0.23232,8.214159 4.05897,9.799223 z"
   id="path6-3" /><path
   style="fill:#ff00fe;fill-opacity:1;stroke:#ff00fe;stroke-width:6.99205;stroke-dasharray:none;stroke-opacity:1"
   d="m 108.01867,54.839089 c 3.82759,-1.585449 5.64439,-5.971581 4.05895,-9.799214 L 100.29901,16.603786 c -1.585474,-3.827632 -5.971582,-5.644432 -9.799206,-4.058978 -3.82761,1.585448 -5.644391,5.971574 -4.058934,9.799207 l 11.778601,28.436088 c 1.585445,3.827633 5.972519,5.644059 9.799199,4.058986 z"
   id="path6-5" /><path
   style="fill:#ff00fe;fill-opacity:1;stroke:#ff00fe;stroke-width:6.99205;stroke-dasharray:none;stroke-opacity:1"
   d="m 242.40045,42.289255 c -2.858,-2.995 -7.60597,-3.106 -10.60399,-0.248 l -22.77002,21.73 c -2.99699,2.859 -3.10697,7.607 -0.24798,10.604 1.47398,1.544 3.44801,2.322 5.42699,2.322 1.86,0 3.72499,-0.688 5.17699,-2.074 l 22.77001,-21.731 c 2.997,-2.859 3.107,-7.607 0.248,-10.603 z"
   id="path8" /><path
   style="fill:#ff00fe;fill-opacity:1;stroke:#ff00fe;stroke-width:6.99205;stroke-dasharray:none;stroke-opacity:1"
   d="m 274.54541,133.37205 c -0.004,0 -0.008,0 -0.012,0 l -29.31101,0.047 c -4.143,0.007 -7.49503,3.37 -7.488,7.512 0.007,4.13894 3.363,7.48793 7.5,7.48793 0.004,0 0.008,0 0.012,0 l 29.31101,-0.047 c 4.14299,-0.007 7.495,-3.36996 7.488,-7.51194 -0.006,-4.139 -3.363,-7.488 -7.5,-7.488 z"
   id="path10" /><path
   style="fill:#ff00fe;fill-opacity:1;stroke:#ff00fe;stroke-width:6.99205;stroke-dasharray:none;stroke-opacity:1"
   d="m 260.83305,82.700772 c -0.004,0.0015 -0.007,0.0031 -0.0111,0.0046 l -27.06183,11.260256 c -3.82495,1.591925 -5.6348,5.981673 -4.04329,9.805682 1.59039,3.82123 5.97255,5.63098 9.79463,4.04784 0.004,-0.002 0.007,-0.003 0.0111,-0.005 l 27.06182,-11.26023 c 3.82495,-1.591924 5.63484,-5.981686 4.04329,-9.805707 -1.58945,-3.821614 -5.97253,-5.631022 -9.79462,-4.047861 z"
   id="path10-7" /><path
   style="fill:#ff00fe;fill-opacity:1;stroke:#ff00fe;stroke-width:6.99205;stroke-dasharray:none;stroke-opacity:1"
   d="m 76.967086,74.47287 c 2.859,-2.996 2.749,-7.743 -0.248,-10.604 l -22.77,-21.73 c -2.994,-2.858 -7.742,-2.749 -10.604,0.248 -2.859,2.996 -2.749,7.743 0.248,10.604 l 22.77,21.731 c 1.452,1.386 3.315,2.074 5.177,2.074 1.978,-10e-4 3.953,-0.779 5.427,-2.323 z"
   id="path12" /><path
   style="fill:#ff00fe;fill-opacity:1;stroke:#ff00fe;stroke-width:6.99205;stroke-dasharray:none;stroke-opacity:1"
   d="m 40.318036,133.41905 -29.31,-0.047 c -0.004,0 -0.008,0 -0.012,0 -4.1370002,0 -7.4930002,3.351 -7.5000002,7.488 -0.007,4.14194 3.346,7.50493 7.4880002,7.51193 l 29.31,0.047 c 0.004,0 0.008,0 0.012,0 4.137,0 7.493,-3.35095 7.5,-7.48793 0.008,-4.142 -3.345,-7.506 -7.488,-7.512 z"
   id="path14" /><path
   style="fill:#ff00fe;fill-opacity:1;stroke:#ff00fe;stroke-width:6.99205;stroke-dasharray:none;stroke-opacity:1"
   d="M 51.706639,93.956259 24.645716,82.696385 c -0.0037,-0.0015 -0.0074,-0.0031 -0.01109,-0.0046 -3.822089,-1.583161 -8.205001,0.228473 -9.79463,4.047884 -1.591542,3.82403 0.219262,8.214175 4.043292,9.805717 l 27.060923,11.259854 c 0.0037,0.001 0.0074,0.003 0.01109,0.005 3.822089,1.58316 8.205001,-0.22847 9.79463,-4.04786 1.592466,-3.823652 -0.217955,-8.21472 -4.043292,-9.805721 z"
   id="path14-6" />
<g
   id="g10371"
   transform="matrix(1.1913384,0,0,1.1913384,281.85544,25.794575)"><ellipse
     style="fill:none;fill-opacity:1;stroke:#4e0000;stroke-width:12.8733;stroke-linejoin:bevel;stroke-dasharray:none;stroke-opacity:1;paint-order:stroke fill markers"
     id="path4595"
     cx="143.55466"
     cy="130.50371"
     rx="63.363106"
     ry="63.363087" /><ellipse
     style="fill:none;fill-opacity:1;stroke:#00f100;stroke-width:1.3911;stroke-linejoin:bevel;stroke-dasharray:none;stroke-opacity:1;paint-order:stroke fill markers"
     id="path4595-3"
     cx="143.55466"
     cy="130.50371"
     rx="88.156425"
     ry="88.156395" /><g
     id="g10358"><path
       style="fill:none;stroke:#000000;stroke-width:0.349602px;stroke-linecap:butt;stroke-linejoin:miter;stroke-opacity:1"
       d="M 235.83744,128.42462 H 54.93044"
       id="path7178"
       sodipodi:nodetypes="cc" /><path
       style="fill:none;stroke:#000000;stroke-width:0.349602px;stroke-linecap:butt;stroke-linejoin:miter;stroke-opacity:1"
       d="M 143.37474,212.24199 V -69.829369"
       id="path7282"
       sodipodi:nodetypes="cc" /><path
       style="fill:none;stroke:#000000;stroke-width:0.349602px;stroke-linecap:butt;stroke-linejoin:miter;stroke-opacity:1"
       d="M 43.076926,228.54916 242.53149,29.094594"
       id="path7282-5"
       sodipodi:nodetypes="cc" /><path
       style="fill:none;stroke:#000000;stroke-width:0.349602px;stroke-linecap:butt;stroke-linejoin:miter;stroke-opacity:1"
       d="M 21.827521,178.86404 282.42747,70.920002"
       id="path7282-5-0"
       sodipodi:nodetypes="cc" /><path
       style="fill:none;stroke:#000000;stroke-width:0.349602px;stroke-linecap:butt;stroke-linejoin:miter;stroke-opacity:1"
       d="M 230.0616,215.33808 30.607131,15.88351"
       id="path7282-6"
       sodipodi:nodetypes="cc" /><path
       style="fill:none;stroke:#000000;stroke-width:0.349602px;stroke-linecap:butt;stroke-linejoin:miter;stroke-opacity:1"
       d="M 191.81302,245.85997 83.868981,-14.739993"
       id="path7282-2"
       sodipodi:nodetypes="cc" /><path
       style="fill:none;stroke:#000000;stroke-width:0.349602px;stroke-linecap:butt;stroke-linejoin:miter;stroke-opacity:1"
       d="M 86.024439,267.21569 193.96847,6.6157343"
       id="path7282-9"
       sodipodi:nodetypes="cc" /><path
       style="fill:none;stroke:#000000;stroke-width:0.349602px;stroke-linecap:butt;stroke-linejoin:miter;stroke-opacity:1"
       d="M 19.809757,77.679598 280.40972,185.62363"
       id="path7282-1"
       sodipodi:nodetypes="cc" /></g></g><path
   style="fill:none;stroke:#000000;stroke-width:0.349602px;stroke-linecap:butt;stroke-linejoin:miter;stroke-opacity:1"
   d="M -397.48375,54.007075 V -228.06428"
   id="path7282-27"
   sodipodi:nodetypes="cc" /></svg>
