<svg class="railroad-diagram" height="112" viewBox="0 0 835.5 112" width="835.5" xmlns="http://www.w3.org/2000/svg" xmlns:xlink="http://www.w3.org/1999/xlink">
<g transform="translate(.5 .5)">
<style>/* <![CDATA[ */

	svg.railroad-diagram {
		background-color: rgba(255, 255, 255, 0); /* transparent white*/
	}
	svg.railroad-diagram path {
		stroke-width:3;
		stroke:black;
		fill: rgba(0,0,0,0);
	}
	svg.railroad-diagram text {
		/* font:bold 14px sans; */
		font-family: sans;
		text-anchor:middle;
    	fill: black; /* color of text */
	}
	svg.railroad-diagram .labelname{
		font-family: sans;
		text-anchor:middle;
		stroke-width: 0
        fill: red; /* color of text */
	}

	svg.railroad-diagram text.label{
		text-anchor:start;
	}

	svg.railroad-diagram text.comment{
		/* font:italic 12px monospace;*/
		font-family: sans;
		font-style: italic;
	}

    svg.railroad-diagram .nterm { /* defines non-terminals */
		stroke-width:3;
		stroke:black;
		fill: rgb(181,232,247);
	}

    svg.railroad-diagram .term { /* defines terminals */
		stroke-width:3;
		stroke:black;
		fill: rgb(217,194,240);
	}

	svg.railroad-diagram rect.group-box {
		stroke: gray;
		stroke-dasharray: 10 5;
		fill: none;
	}

/* ]]> */
</style><g>
<path d="M20 30v20m10 -20v20m-10 -10h20"></path></g><g>
<path d="M40 40h0.0"></path><path d="M795.5 40h0.0"></path><path d="M40.0 40h20"></path><g>
<path d="M60.0 40h0.0"></path><path d="M775.5 40h0.0"></path><g class="terminal ">
<path d="M60.0 40h0.0"></path><path d="M137.0 40h0.0"></path><rect class="term" height="24" width="77.0" x="60.0" y="29"></rect><text x="98.5" y="45">'EUD:'</text></g><path d="M137.0 40h10"></path><g>
<path d="M147.0 40h0.0"></path><path d="M274.5 40h0.0"></path><path d="M147.0 40h20"></path><g>
<path d="M167.0 40h0.0"></path><path d="M254.5 40h0.0"></path><g>
<path d="M167.0 40h0.0"></path><path d="M254.5 40h0.0"></path><path d="M167.0 40h10"></path><g class="terminal ">
<path d="M177.0 40h0.0"></path><path d="M244.5 40h0.0"></path><rect class="term" height="24" width="67.5" x="177.0" y="29"></rect><text x="210.75" y="45">&#91;0-9&#93;</text></g><path d="M244.5 40h10"></path><path d="M177.0 40a10 10 0 0 0 -10 10v0a10 10 0 0 0 10 10"></path><g>
<path d="M177.0 60h67.5"></path></g><path d="M244.5 60a10 10 0 0 0 10 -10v0a10 10 0 0 0 -10 -10"></path></g></g><path d="M254.5 40h20"></path><path d="M147.0 40a10 10 0 0 1 10 10v20a10 10 0 0 0 10 10"></path><g>
<path d="M167.0 80h19.5"></path><path d="M235.0 80h19.5"></path><g class="terminal ">
<path d="M186.5 80h0.0"></path><path d="M235.0 80h0.0"></path><rect class="term" height="24" width="48.5" x="186.5" y="69"></rect><text x="210.75" y="85">'&#42;'</text></g></g><path d="M254.5 80a10 10 0 0 0 10 -10v-20a10 10 0 0 1 10 -10"></path></g><path d="M274.5 40h10"></path><g class="terminal ">
<path d="M284.5 40h0.0"></path><path d="M342.5 40h0.0"></path><rect class="term" height="24" width="58.0" x="284.5" y="29"></rect><text x="313.5" y="45">&#91;:=&#93;</text></g><path d="M342.5 40h10"></path><path d="M352.5 40h10"></path><g>
<path d="M362.5 40h0.0"></path><path d="M450.0 40h0.0"></path><path d="M362.5 40h10"></path><g class="terminal ">
<path d="M372.5 40h0.0"></path><path d="M440.0 40h0.0"></path><rect class="term" height="24" width="67.5" x="372.5" y="29"></rect><text x="406.25" y="45">&#91;a-z&#93;</text></g><path d="M440.0 40h10"></path><path d="M372.5 40a10 10 0 0 0 -10 10v0a10 10 0 0 0 10 10"></path><g>
<path d="M372.5 60h67.5"></path></g><path d="M440.0 60a10 10 0 0 0 10 -10v0a10 10 0 0 0 -10 -10"></path></g><path d="M450.0 40h10"></path><g>
<path d="M460.0 40h0.0"></path><path d="M775.5 40h0.0"></path><path d="M460.0 40a10 10 0 0 0 10 -10v0a10 10 0 0 1 10 -10"></path><g>
<path d="M480.0 20h275.5"></path></g><path d="M755.5 20a10 10 0 0 1 10 10v0a10 10 0 0 0 10 10"></path><path d="M460.0 40h20"></path><g>
<path d="M480.0 40h0.0"></path><path d="M755.5 40h0.0"></path><path d="M480.0 40h20"></path><g>
<path d="M500.0 40h0.0"></path><path d="M735.5 40h0.0"></path><g class="terminal ">
<path d="M500.0 40h0.0"></path><path d="M548.5 40h0.0"></path><rect class="term" height="24" width="48.5" x="500.0" y="29"></rect><text x="524.25" y="45">':'</text></g><path d="M548.5 40h10"></path><path d="M558.5 40h10"></path><g>
<path d="M568.5 40h0.0"></path><path d="M735.5 40h0.0"></path><path d="M568.5 40h10"></path><g>
<path d="M578.5 40h0.0"></path><path d="M725.5 40h0.0"></path><g class="non-terminal ">
<path d="M578.5 40h0.0"></path><path d="M609.5 40h0.0"></path><text class="comment" x="594.0" y="45">not</text></g><path d="M609.5 40h10"></path><path d="M619.5 40h10"></path><g class="terminal ">
<path d="M629.5 40h0.0"></path><path d="M725.5 40h0.0"></path><rect class="term" height="24" width="96.0" x="629.5" y="29"></rect><text x="677.5" y="45">&#91;␣\n\t)&#38;|&#93;</text></g></g><path d="M725.5 40h10"></path><path d="M578.5 40a10 10 0 0 0 -10 10v0a10 10 0 0 0 10 10"></path><g>
<path d="M578.5 60h147.0"></path></g><path d="M725.5 60a10 10 0 0 0 10 -10v0a10 10 0 0 0 -10 -10"></path></g></g><path d="M735.5 40h20"></path></g><path d="M755.5 40h20"></path></g></g><path d="M775.5 40h20"></path></g><path d="M 795.5 40 h 20 m -10 -10 v 20 m 10 -20 v 20"></path></g></svg>