<svg class="railroad-diagram" height="80" viewBox="0 0 738.0 80" width="738.0" xmlns="http://www.w3.org/2000/svg" xmlns:xlink="http://www.w3.org/1999/xlink">
<g transform="translate(.5 .5)">
<style>/* <![CDATA[ */

	svg.railroad-diagram {
		background-color: rgba(255, 255, 255, 0); /* transparent white*/
	}
	svg.railroad-diagram path {
		stroke-width:3;
		stroke:black;
		fill: rgba(0,0,0,0);
	}
	svg.railroad-diagram text {
		/* font:bold 14px sans; */
		font-family: sans;
		text-anchor:middle;
    	fill: black; /* color of text */
	}
	svg.railroad-diagram .labelname{
		font-family: sans;
		text-anchor:middle;
		stroke-width: 0
        fill: red; /* color of text */
	}

	svg.railroad-diagram text.label{
		text-anchor:start;
	}

	svg.railroad-diagram text.comment{
		/* font:italic 12px monospace;*/
		font-family: sans;
		font-style: italic;
	}

    svg.railroad-diagram .nterm { /* defines non-terminals */
		stroke-width:3;
		stroke:black;
		fill: rgb(181,232,247);
	}

    svg.railroad-diagram .term { /* defines terminals */
		stroke-width:3;
		stroke:black;
		fill: rgb(217,194,240);
	}

	svg.railroad-diagram rect.group-box {
		stroke: gray;
		stroke-dasharray: 10 5;
		fill: none;
	}

/* ]]> */
</style><g>
<path d="M20 30v20m10 -20v20m-10 -10h20"></path></g><g>
<path d="M40 40h0.0"></path><path d="M698.0 40h0.0"></path><path d="M40.0 40h20"></path><g>
<path d="M60.0 40h0.0"></path><path d="M678.0 40h0.0"></path><g class="terminal ">
<path d="M60.0 40h0.0"></path><path d="M165.5 40h0.0"></path><rect class="term" height="24" width="105.5" x="60.0" y="29"></rect><text x="112.75" y="45">'Deprel:'</text></g><path d="M165.5 40h10"></path><path d="M175.5 40h10"></path><g>
<path d="M185.5 40h0.0"></path><path d="M352.5 40h0.0"></path><path d="M185.5 40h10"></path><g>
<path d="M195.5 40h0.0"></path><path d="M342.5 40h0.0"></path><g class="non-terminal ">
<path d="M195.5 40h0.0"></path><path d="M226.5 40h0.0"></path><text class="comment" x="211.0" y="45">not</text></g><path d="M226.5 40h10"></path><path d="M236.5 40h10"></path><g class="terminal ">
<path d="M246.5 40h0.0"></path><path d="M342.5 40h0.0"></path><rect class="term" height="24" width="96.0" x="246.5" y="29"></rect><text x="294.5" y="45">&#91;␣\n\t)&#38;|&#93;</text></g></g><path d="M342.5 40h10"></path><path d="M195.5 40a10 10 0 0 0 -10 10v0a10 10 0 0 0 10 10"></path><g>
<path d="M195.5 60h147.0"></path></g><path d="M342.5 60a10 10 0 0 0 10 -10v0a10 10 0 0 0 -10 -10"></path></g><path d="M352.5 40h10"></path><g>
<path d="M362.5 40h0.0"></path><path d="M678.0 40h0.0"></path><path d="M362.5 40a10 10 0 0 0 10 -10v0a10 10 0 0 1 10 -10"></path><g>
<path d="M382.5 20h275.5"></path></g><path d="M658.0 20a10 10 0 0 1 10 10v0a10 10 0 0 0 10 10"></path><path d="M362.5 40h20"></path><g>
<path d="M382.5 40h0.0"></path><path d="M658.0 40h0.0"></path><path d="M382.5 40h20"></path><g>
<path d="M402.5 40h0.0"></path><path d="M638.0 40h0.0"></path><g class="terminal ">
<path d="M402.5 40h0.0"></path><path d="M451.0 40h0.0"></path><rect class="term" height="24" width="48.5" x="402.5" y="29"></rect><text x="426.75" y="45">':'</text></g><path d="M451.0 40h10"></path><path d="M461.0 40h10"></path><g>
<path d="M471.0 40h0.0"></path><path d="M638.0 40h0.0"></path><path d="M471.0 40h10"></path><g>
<path d="M481.0 40h0.0"></path><path d="M628.0 40h0.0"></path><g class="non-terminal ">
<path d="M481.0 40h0.0"></path><path d="M512.0 40h0.0"></path><text class="comment" x="496.5" y="45">not</text></g><path d="M512.0 40h10"></path><path d="M522.0 40h10"></path><g class="terminal ">
<path d="M532.0 40h0.0"></path><path d="M628.0 40h0.0"></path><rect class="term" height="24" width="96.0" x="532.0" y="29"></rect><text x="580.0" y="45">&#91;␣\n\t)&#38;|&#93;</text></g></g><path d="M628.0 40h10"></path><path d="M481.0 40a10 10 0 0 0 -10 10v0a10 10 0 0 0 10 10"></path><g>
<path d="M481.0 60h147.0"></path></g><path d="M628.0 60a10 10 0 0 0 10 -10v0a10 10 0 0 0 -10 -10"></path></g></g><path d="M638.0 40h20"></path></g><path d="M658.0 40h20"></path></g></g><path d="M678.0 40h20"></path></g><path d="M 698.0 40 h 20 m -10 -10 v 20 m 10 -20 v 20"></path></g></svg>