<svg class="railroad-diagram" height="80" viewBox="0 0 633.5 80" width="633.5" xmlns="http://www.w3.org/2000/svg" xmlns:xlink="http://www.w3.org/1999/xlink">
<g transform="translate(.5 .5)">
<style>/* <![CDATA[ */

	svg.railroad-diagram {
		background-color: rgba(255,255,0, 0);
	}
	svg.railroad-diagram path {
		stroke-width:3;
		stroke:black;
		fill:rgba(0,0,0,0);
	}
	svg.railroad-diagram text {
		eeefont:bold 14px sans; 
		font-family: sans;
		text-anchor:middle;
                fill: black; /* color of text */
	}
	svg.railroad-diagram .labelname {
		font-family: sans;
		text-anchor:middle;
		stroke-width: 0
                fill: red; /* color of text */
	}

	svg.railroad-diagram text.label{
		text-anchor:start;
	}
	svg.railroad-diagram text.comment{
		eeefont:italic 12px monospace;
		font-family: sans;
		font-style: italic;
	}
        svg.railroad-diagram .nterm { /* defines non-terminals */
		stroke-width:3;
		stroke:black; /* used for outline AND font, so without it the text looks OK but not the form...*/
		fill: rgb(181,232,247);
	}
        svg.railroad-diagram .term { /* defines terminals */
		stroke-width:3;
		stroke:black; /* used for outline AND font, so without it the text looks OK but not the form...*/
		fill: rgb(217,194,240);
	}

	svg.railroad-diagram rect.group-box {
		stroke: gray;
		stroke-dasharray: 10 5;
		fill: none;
	}

/* ]]> */
</style><g>
<path d="M20 30v20m10 -20v20m-10 -10h20"></path></g><g>
<path d="M40 40h0.0"></path><path d="M593.5 40h0.0"></path><path d="M40.0 40h20"></path><g>
<path d="M60.0 40h0.0"></path><path d="M573.5 40h0.0"></path><g class="terminal ">
<path d="M60.0 40h0.0"></path><path d="M156.5 40h0.0"></path><rect class="term" height="22" rx="10" ry="10" width="96.5" x="60.0" y="29"></rect><text x="108.25" y="44">'Deprel:'</text></g><path d="M156.5 40h10"></path><path d="M166.5 40h10"></path><g>
<path d="M176.5 40h0.0"></path><path d="M259.0 40h0.0"></path><path d="M176.5 40h10"></path><g class="terminal ">
<path d="M186.5 40h0.0"></path><path d="M249.0 40h0.0"></path><rect class="term" height="22" rx="10" ry="10" width="62.5" x="186.5" y="29"></rect><text x="217.75" y="44">&#91;a-z&#93;</text></g><path d="M249.0 40h10"></path><path d="M186.5 40a10 10 0 0 0 -10 10v0a10 10 0 0 0 10 10"></path><g>
<path d="M186.5 60h62.5"></path></g><path d="M249.0 60a10 10 0 0 0 10 -10v0a10 10 0 0 0 -10 -10"></path></g><path d="M259.0 40h10"></path><g>
<path d="M269.0 40h0.0"></path><path d="M573.5 40h0.0"></path><path d="M269.0 40a10 10 0 0 0 10 -10v0a10 10 0 0 1 10 -10"></path><g>
<path d="M289.0 20h264.5"></path></g><path d="M553.5 20a10 10 0 0 1 10 10v0a10 10 0 0 0 10 10"></path><path d="M269.0 40h20"></path><g>
<path d="M289.0 40h0.0"></path><path d="M553.5 40h0.0"></path><path d="M289.0 40h20"></path><g>
<path d="M309.0 40h0.0"></path><path d="M533.5 40h0.0"></path><g class="terminal ">
<path d="M309.0 40h0.0"></path><path d="M354.5 40h0.0"></path><rect class="term" height="22" rx="10" ry="10" width="45.5" x="309.0" y="29"></rect><text x="331.75" y="44">':'</text></g><path d="M354.5 40h10"></path><path d="M364.5 40h10"></path><g>
<path d="M374.5 40h0.0"></path><path d="M533.5 40h0.0"></path><path d="M374.5 40h10"></path><g>
<path d="M384.5 40h0.0"></path><path d="M523.5 40h0.0"></path><g class="non-terminal ">
<path d="M384.5 40h0.0"></path><path d="M415.5 40h0.0"></path><text class="comment" x="400.0" y="45">not</text></g><path d="M415.5 40h10"></path><path d="M425.5 40h10"></path><g class="terminal ">
<path d="M435.5 40h0.0"></path><path d="M523.5 40h0.0"></path><rect class="term" height="22" rx="10" ry="10" width="88.0" x="435.5" y="29"></rect><text x="479.5" y="44">&#91; 
	)&#38;|&#93;</text></g></g><path d="M523.5 40h10"></path><path d="M384.5 40a10 10 0 0 0 -10 10v0a10 10 0 0 0 10 10"></path><g>
<path d="M384.5 60h139.0"></path></g><path d="M523.5 60a10 10 0 0 0 10 -10v0a10 10 0 0 0 -10 -10"></path></g></g><path d="M533.5 40h20"></path></g><path d="M553.5 40h20"></path></g></g><path d="M573.5 40h20"></path></g><path d="M 593.5 40 h 20 m -10 -10 v 20 m 10 -20 v 20"></path></g></svg>