<svg class="railroad-diagram" height="80" viewBox="0 0 653.0 80" width="653.0" xmlns="http://www.w3.org/2000/svg" xmlns:xlink="http://www.w3.org/1999/xlink">
<g transform="translate(.5 .5)">
<style>/* <![CDATA[ */

	svg.railroad-diagram {
		background-color: rgba(255, 255, 255, 0); /* transparent white*/
	}
	svg.railroad-diagram path {
		stroke-width:3;
		stroke:black;
		fill: rgba(0,0,0,0);
	}
	svg.railroad-diagram text {
		/* font:bold 14px sans; */
		font-family: sans;
		text-anchor:middle;
    	fill: black; /* color of text */
	}
	svg.railroad-diagram .labelname{
		font-family: sans;
		text-anchor:middle;
		stroke-width: 0
        fill: red; /* color of text */
	}

	svg.railroad-diagram text.label{
		text-anchor:start;
	}

	svg.railroad-diagram text.comment{
		/* font:italic 12px monospace;*/
		font-family: sans;
		font-style: italic;
	}

    svg.railroad-diagram .nterm { /* defines non-terminals */
		stroke-width:3;
		stroke:black;
		fill: rgb(181,232,247);
	}

    svg.railroad-diagram .term { /* defines terminals */
		stroke-width:3;
		stroke:black;
		fill: rgb(217,194,240);
	}

	svg.railroad-diagram rect.group-box {
		stroke: gray;
		stroke-dasharray: 10 5;
		fill: none;
	}

/* ]]> */
</style><g>
<path d="M20 30v20m10 -20v20m-10 -10h20"></path></g><g>
<path d="M40 40h0.0"></path><path d="M613.0 40h0.0"></path><path d="M40.0 40h20"></path><g>
<path d="M60.0 40h0.0"></path><path d="M593.0 40h0.0"></path><g class="terminal ">
<path d="M60.0 40h0.0"></path><path d="M146.5 40h0.0"></path><rect class="term" height="24" width="86.5" x="60.0" y="29"></rect><text x="103.25" y="45">'Feat:'</text></g><path d="M146.5 40h10"></path><path d="M156.5 40h10"></path><g>
<path d="M166.5 40h0.0"></path><path d="M320.5 40h0.0"></path><path d="M166.5 40h10"></path><g class="terminal ">
<path d="M176.5 40h0.0"></path><path d="M310.5 40h0.0"></path><rect class="term" height="24" width="134.0" x="176.5" y="29"></rect><text x="243.5" y="45">&#91;A-Za-z&#95;&#91;\&#93;&#93;</text></g><path d="M310.5 40h10"></path><path d="M176.5 40a10 10 0 0 0 -10 10v0a10 10 0 0 0 10 10"></path><g>
<path d="M176.5 60h134.0"></path></g><path d="M310.5 60a10 10 0 0 0 10 -10v0a10 10 0 0 0 -10 -10"></path></g><path d="M320.5 40h10"></path><path d="M330.5 40h10"></path><g class="terminal ">
<path d="M340.5 40h0.0"></path><path d="M398.5 40h0.0"></path><rect class="term" height="24" width="58.0" x="340.5" y="29"></rect><text x="369.5" y="45">&#91;:=&#93;</text></g><path d="M398.5 40h10"></path><g>
<path d="M408.5 40h0.0"></path><path d="M593.0 40h0.0"></path><path d="M408.5 40a10 10 0 0 0 10 -10v0a10 10 0 0 1 10 -10"></path><g>
<path d="M428.5 20h144.5"></path></g><path d="M573.0 20a10 10 0 0 1 10 10v0a10 10 0 0 0 10 10"></path><path d="M408.5 40h20"></path><g>
<path d="M428.5 40h0.0"></path><path d="M573.0 40h0.0"></path><path d="M428.5 40h10"></path><g class="terminal ">
<path d="M438.5 40h0.0"></path><path d="M563.0 40h0.0"></path><rect class="term" height="24" width="124.5" x="438.5" y="29"></rect><text x="500.75" y="45">&#91;A-Za-z0-9&#93;</text></g><path d="M563.0 40h10"></path><path d="M438.5 40a10 10 0 0 0 -10 10v0a10 10 0 0 0 10 10"></path><g>
<path d="M438.5 60h124.5"></path></g><path d="M563.0 60a10 10 0 0 0 10 -10v0a10 10 0 0 0 -10 -10"></path></g><path d="M573.0 40h20"></path></g></g><path d="M593.0 40h20"></path></g><path d="M 613.0 40 h 20 m -10 -10 v 20 m 10 -20 v 20"></path></g></svg>