<svg class="railroad-diagram" height="71" viewBox="0 0 589.0 71" width="589.0" xmlns="http://www.w3.org/2000/svg" xmlns:xlink="http://www.w3.org/1999/xlink">
<g transform="translate(.5 .5)">
<style>/* <![CDATA[ */

	svg.railroad-diagram {
		background-color: rgba(255,255,0, 0);
	}
	svg.railroad-diagram path {
		stroke-width:3;
		stroke:black;
		fill:rgba(0,0,0,0);
	}
	svg.railroad-diagram text {
		eeefont:bold 14px sans; 
		font-family: sans;
		text-anchor:middle;
                fill: black; /* color of text */
	}
	svg.railroad-diagram .labelname {
		font-family: sans;
		text-anchor:middle;
		stroke-width: 0
                fill: red; /* color of text */
	}

	svg.railroad-diagram text.label{
		text-anchor:start;
	}
	svg.railroad-diagram text.comment{
		eeefont:italic 12px monospace;
		font-family: sans;
		font-style: italic;
	}
        svg.railroad-diagram .nterm { /* defines non-terminals */
		stroke-width:3;
		stroke:black; /* used for outline AND font, so without it the text looks OK but not the form...*/
		fill: rgb(181,232,247);
	}
        svg.railroad-diagram .term { /* defines terminals */
		stroke-width:3;
		stroke:black; /* used for outline AND font, so without it the text looks OK but not the form...*/
		fill: rgb(217,194,240);
	}

	svg.railroad-diagram rect.group-box {
		stroke: gray;
		stroke-dasharray: 10 5;
		fill: none;
	}

/* ]]> */
</style><g>
<path d="M20 21v20m10 -20v20m-10 -10h20"></path></g><g>
<path d="M40 31h0.0"></path><path d="M549.0 31h0.0"></path><path d="M40.0 31h20"></path><g>
<path d="M60.0 31h0.0"></path><path d="M529.0 31h0.0"></path><g class="terminal ">
<path d="M60.0 31h0.0"></path><path d="M139.5 31h0.0"></path><rect class="term" height="22" rx="10" ry="10" width="79.5" x="60.0" y="20"></rect><text x="99.75" y="35">'Feat:'</text></g><path d="M139.5 31h10"></path><path d="M149.5 31h10"></path><g>
<path d="M159.5 31h0.0"></path><path d="M301.5 31h0.0"></path><path d="M159.5 31h10"></path><g class="terminal ">
<path d="M169.5 31h0.0"></path><path d="M291.5 31h0.0"></path><rect class="term" height="22" rx="10" ry="10" width="122.0" x="169.5" y="20"></rect><text x="230.5" y="35">&#91;A-Za-z&#95;&#91;\&#93;&#93;</text></g><path d="M291.5 31h10"></path><path d="M169.5 31a10 10 0 0 0 -10 10v0a10 10 0 0 0 10 10"></path><g>
<path d="M169.5 51h122.0"></path></g><path d="M291.5 51a10 10 0 0 0 10 -10v0a10 10 0 0 0 -10 -10"></path></g><path d="M301.5 31h10"></path><path d="M311.5 31h10"></path><g class="terminal ">
<path d="M321.5 31h0.0"></path><path d="M375.5 31h0.0"></path><rect class="term" height="22" rx="10" ry="10" width="54.0" x="321.5" y="20"></rect><text x="348.5" y="35">&#91;:=&#93;</text></g><path d="M375.5 31h10"></path><path d="M385.5 31h10"></path><g>
<path d="M395.5 31h0.0"></path><path d="M529.0 31h0.0"></path><path d="M395.5 31h10"></path><g class="terminal ">
<path d="M405.5 31h0.0"></path><path d="M519.0 31h0.0"></path><rect class="term" height="22" rx="10" ry="10" width="113.5" x="405.5" y="20"></rect><text x="462.25" y="35">&#91;A-Za-z0-9&#93;</text></g><path d="M519.0 31h10"></path><path d="M405.5 31a10 10 0 0 0 -10 10v0a10 10 0 0 0 10 10"></path><g>
<path d="M405.5 51h113.5"></path></g><path d="M519.0 51a10 10 0 0 0 10 -10v0a10 10 0 0 0 -10 -10"></path></g></g><path d="M529.0 31h20"></path></g><path d="M 549.0 31 h 20 m -10 -10 v 20 m 10 -20 v 20"></path></g></svg>