<svg class="railroad-diagram" height="480" viewBox="0 0 206.5 480" width="206.5" xmlns="http://www.w3.org/2000/svg" xmlns:xlink="http://www.w3.org/1999/xlink">
<g transform="translate(.5 .5)">
<style>/* <![CDATA[ */

	svg.railroad-diagram {
		background-color: rgba(255, 255, 255, 0); /* transparent white*/
	}
	svg.railroad-diagram path {
		stroke-width:3;
		stroke:black;
		fill: rgba(0,0,0,0);
	}
	svg.railroad-diagram text {
		/* font:bold 14px sans; */
		font-family: sans;
		text-anchor:middle;
    	fill: black; /* color of text */
	}
	svg.railroad-diagram .labelname{
		font-family: sans;
		text-anchor:middle;
		stroke-width: 0
        fill: red; /* color of text */
	}

	svg.railroad-diagram text.label{
		text-anchor:start;
	}

	svg.railroad-diagram text.comment{
		/* font:italic 12px monospace;*/
		font-family: sans;
		font-style: italic;
	}

    svg.railroad-diagram .nterm { /* defines non-terminals */
		stroke-width:3;
		stroke:black;
		fill: rgb(181,232,247);
	}

    svg.railroad-diagram .term { /* defines terminals */
		stroke-width:3;
		stroke:black;
		fill: rgb(217,194,240);
	}

	svg.railroad-diagram rect.group-box {
		stroke: gray;
		stroke-dasharray: 10 5;
		fill: none;
	}

/* ]]> */
</style><g>
<path d="M20 22v20m10 -20v20m-10 -10h20"></path></g><g>
<path d="M40 32h0.0"></path><path d="M166.5 32h0.0"></path><path d="M40.0 32h20"></path><g>
<path d="M60.0 32h14.25"></path><path d="M132.25 32h14.25"></path><g class="terminal ">
<path d="M74.25 32h0.0"></path><path d="M132.25 32h0.0"></path><rect class="term" height="24" width="58.0" x="74.25" y="21"></rect><text x="103.25" y="37">UPOS</text></g></g><path d="M146.5 32h20"></path><path d="M40.0 32a10 10 0 0 1 10 10v12a10 10 0 0 0 10 10"></path><g>
<path d="M60.0 64h9.5"></path><path d="M137.0 64h9.5"></path><g class="terminal ">
<path d="M69.5 64h0.0"></path><path d="M137.0 64h0.0"></path><rect class="term" height="24" width="67.5" x="69.5" y="53"></rect><text x="103.25" y="69">LEMMA</text></g></g><path d="M146.5 64a10 10 0 0 0 10 -10v-12a10 10 0 0 1 10 -10"></path><path d="M40.0 32a10 10 0 0 1 10 10v44a10 10 0 0 0 10 10"></path><g>
<path d="M60.0 96h14.25"></path><path d="M132.25 96h14.25"></path><g class="terminal ">
<path d="M74.25 96h0.0"></path><path d="M132.25 96h0.0"></path><rect class="term" height="24" width="58.0" x="74.25" y="85"></rect><text x="103.25" y="101">FORM</text></g></g><path d="M146.5 96a10 10 0 0 0 10 -10v-44a10 10 0 0 1 10 -10"></path><path d="M40.0 32a10 10 0 0 1 10 10v76a10 10 0 0 0 10 10"></path><g>
<path d="M60.0 128h14.25"></path><path d="M132.25 128h14.25"></path><g class="terminal ">
<path d="M74.25 128h0.0"></path><path d="M132.25 128h0.0"></path><rect class="term" height="24" width="58.0" x="74.25" y="117"></rect><text x="103.25" y="133">XPOS</text></g></g><path d="M146.5 128a10 10 0 0 0 10 -10v-76a10 10 0 0 1 10 -10"></path><path d="M40.0 32a10 10 0 0 1 10 10v108a10 10 0 0 0 10 10"></path><g>
<path d="M60.0 160h4.75"></path><path d="M141.75 160h4.75"></path><g class="terminal ">
<path d="M64.75 160h0.0"></path><path d="M141.75 160h0.0"></path><rect class="term" height="24" width="77.0" x="64.75" y="149"></rect><text x="103.25" y="165">DEPREL</text></g></g><path d="M146.5 160a10 10 0 0 0 10 -10v-108a10 10 0 0 1 10 -10"></path><path d="M40.0 32a10 10 0 0 1 10 10v140a10 10 0 0 0 10 10"></path><g>
<path d="M60.0 192h14.25"></path><path d="M132.25 192h14.25"></path><g class="terminal ">
<path d="M74.25 192h0.0"></path><path d="M132.25 192h0.0"></path><rect class="term" height="24" width="58.0" x="74.25" y="181"></rect><text x="103.25" y="197">FEAT</text></g></g><path d="M146.5 192a10 10 0 0 0 10 -10v-140a10 10 0 0 1 10 -10"></path><path d="M40.0 32a10 10 0 0 1 10 10v172a10 10 0 0 0 10 10"></path><g>
<path d="M60.0 224h14.25"></path><path d="M132.25 224h14.25"></path><g class="terminal ">
<path d="M74.25 224h0.0"></path><path d="M132.25 224h0.0"></path><rect class="term" height="24" width="58.0" x="74.25" y="213"></rect><text x="103.25" y="229">MISC</text></g></g><path d="M146.5 224a10 10 0 0 0 10 -10v-172a10 10 0 0 1 10 -10"></path><path d="M40.0 32a10 10 0 0 1 10 10v204a10 10 0 0 0 10 10"></path><g>
<path d="M60.0 256h23.75"></path><path d="M122.75 256h23.75"></path><g class="terminal ">
<path d="M83.75 256h0.0"></path><path d="M122.75 256h0.0"></path><rect class="term" height="24" width="39.0" x="83.75" y="245"></rect><text x="103.25" y="261">ID</text></g></g><path d="M146.5 256a10 10 0 0 0 10 -10v-204a10 10 0 0 1 10 -10"></path><path d="M40.0 32a10 10 0 0 1 10 10v236a10 10 0 0 0 10 10"></path><g>
<path d="M60.0 288h4.75"></path><path d="M141.75 288h4.75"></path><g class="terminal ">
<path d="M64.75 288h0.0"></path><path d="M141.75 288h0.0"></path><rect class="term" height="24" width="77.0" x="64.75" y="277"></rect><text x="103.25" y="293">HEADID</text></g></g><path d="M146.5 288a10 10 0 0 0 10 -10v-236a10 10 0 0 1 10 -10"></path><path d="M40.0 32a10 10 0 0 1 10 10v268a10 10 0 0 0 10 10"></path><g>
<path d="M60.0 320h4.75"></path><path d="M141.75 320h4.75"></path><g class="terminal ">
<path d="M64.75 320h0.0"></path><path d="M141.75 320h0.0"></path><rect class="term" height="24" width="77.0" x="64.75" y="309"></rect><text x="103.25" y="325">ABSEUD</text></g></g><path d="M146.5 320a10 10 0 0 0 10 -10v-268a10 10 0 0 1 10 -10"></path><path d="M40.0 32a10 10 0 0 1 10 10v300a10 10 0 0 0 10 10"></path><g>
<path d="M60.0 352h4.75"></path><path d="M141.75 352h4.75"></path><g class="terminal ">
<path d="M64.75 352h0.0"></path><path d="M141.75 352h0.0"></path><rect class="term" height="24" width="77.0" x="64.75" y="341"></rect><text x="103.25" y="357">RELEUD</text></g></g><path d="M146.5 352a10 10 0 0 0 10 -10v-300a10 10 0 0 1 10 -10"></path><path d="M40.0 32a10 10 0 0 1 10 10v332a10 10 0 0 0 10 10"></path><g>
<path d="M60.0 384h19.0"></path><path d="M127.5 384h19.0"></path><g class="terminal ">
<path d="M79.0 384h0.0"></path><path d="M127.5 384h0.0"></path><rect class="term" height="24" width="48.5" x="79.0" y="373"></rect><text x="103.25" y="389">MTW</text></g></g><path d="M146.5 384a10 10 0 0 0 10 -10v-332a10 10 0 0 1 10 -10"></path><path d="M40.0 32a10 10 0 0 1 10 10v364a10 10 0 0 0 10 10"></path><g>
<path d="M60.0 416h0.0"></path><path d="M146.5 416h0.0"></path><g class="terminal ">
<path d="M60.0 416h0.0"></path><path d="M146.5 416h0.0"></path><rect class="term" height="24" width="86.5" x="60.0" y="405"></rect><text x="103.25" y="421">ISEMPTY</text></g></g><path d="M146.5 416a10 10 0 0 0 10 -10v-364a10 10 0 0 1 10 -10"></path><path d="M40.0 32a10 10 0 0 1 10 10v396a10 10 0 0 0 10 10"></path><g>
<path d="M60.0 448h9.5"></path><path d="M137.0 448h9.5"></path><g class="terminal ">
<path d="M69.5 448h0.0"></path><path d="M137.0 448h0.0"></path><rect class="term" height="24" width="67.5" x="69.5" y="437"></rect><text x="103.25" y="453">ISMWT</text></g></g><path d="M146.5 448a10 10 0 0 0 10 -10v-396a10 10 0 0 1 10 -10"></path></g><path d="M 166.5 32 h 20 m -10 -10 v 20 m 10 -20 v 20"></path></g></svg>