<svg class="railroad-diagram" height="80" viewBox="0 0 397.5 80" width="397.5" xmlns="http://www.w3.org/2000/svg" xmlns:xlink="http://www.w3.org/1999/xlink">
<g transform="translate(.5 .5)">
<style>/* <![CDATA[ */

	svg.railroad-diagram {
		background-color: rgba(255,255,0, 0);
	}
	svg.railroad-diagram path {
		stroke-width:3;
		stroke:black;
		fill:rgba(0,0,0,0);
	}
	svg.railroad-diagram text {
		eeefont:bold 14px sans; 
		font-family: sans;
		text-anchor:middle;
                fill: black; /* color of text */
	}
	svg.railroad-diagram .labelname {
		font-family: sans;
		text-anchor:middle;
		stroke-width: 0
                fill: red; /* color of text */
	}

	svg.railroad-diagram text.label{
		text-anchor:start;
	}
	svg.railroad-diagram text.comment{
		eeefont:italic 12px monospace;
		font-family: sans;
		font-style: italic;
	}
        svg.railroad-diagram .nterm { /* defines non-terminals */
		stroke-width:3;
		stroke:black; /* used for outline AND font, so without it the text looks OK but not the form...*/
		fill: rgb(181,232,247);
	}
        svg.railroad-diagram .term { /* defines terminals */
		stroke-width:3;
		stroke:black; /* used for outline AND font, so without it the text looks OK but not the form...*/
		fill: rgb(217,194,240);
	}

	svg.railroad-diagram rect.group-box {
		stroke: gray;
		stroke-dasharray: 10 5;
		fill: none;
	}

/* ]]> */
</style><g>
<path d="M20 30v20m10 -20v20m-10 -10h20"></path></g><g>
<path d="M40 40h0.0"></path><path d="M357.5 40h0.0"></path><path d="M40.0 40h20"></path><g>
<path d="M60.0 40h0.0"></path><path d="M337.5 40h0.0"></path><g class="terminal ">
<path d="M60.0 40h0.0"></path><path d="M122.5 40h0.0"></path><rect class="term" height="22" rx="10" ry="10" width="62.5" x="60.0" y="29"></rect><text x="91.25" y="44">'Id:'</text></g><path d="M122.5 40h10"></path><path d="M132.5 40h10"></path><g class="terminal ">
<path d="M142.5 40h0.0"></path><path d="M205.0 40h0.0"></path><rect class="term" height="22" rx="10" ry="10" width="62.5" x="142.5" y="29"></rect><text x="173.75" y="44">&#91;1-9&#93;</text></g><path d="M205.0 40h10"></path><g>
<path d="M215.0 40h0.0"></path><path d="M337.5 40h0.0"></path><path d="M215.0 40a10 10 0 0 0 10 -10v0a10 10 0 0 1 10 -10"></path><g>
<path d="M235.0 20h82.5"></path></g><path d="M317.5 20a10 10 0 0 1 10 10v0a10 10 0 0 0 10 10"></path><path d="M215.0 40h20"></path><g>
<path d="M235.0 40h0.0"></path><path d="M317.5 40h0.0"></path><path d="M235.0 40h10"></path><g class="terminal ">
<path d="M245.0 40h0.0"></path><path d="M307.5 40h0.0"></path><rect class="term" height="22" rx="10" ry="10" width="62.5" x="245.0" y="29"></rect><text x="276.25" y="44">&#91;0-9&#93;</text></g><path d="M307.5 40h10"></path><path d="M245.0 40a10 10 0 0 0 -10 10v0a10 10 0 0 0 10 10"></path><g>
<path d="M245.0 60h62.5"></path></g><path d="M307.5 60a10 10 0 0 0 10 -10v0a10 10 0 0 0 -10 -10"></path></g><path d="M317.5 40h20"></path></g></g><path d="M337.5 40h20"></path></g><path d="M 357.5 40 h 20 m -10 -10 v 20 m 10 -20 v 20"></path></g></svg>