<svg class="railroad-diagram" height="71" viewBox="0 0 387.0 71" width="387.0" xmlns="http://www.w3.org/2000/svg" xmlns:xlink="http://www.w3.org/1999/xlink">
<g transform="translate(.5 .5)">
<style>/* <![CDATA[ */

	svg.railroad-diagram {
		background-color: rgba(255,255,0, 0);
	}
	svg.railroad-diagram path {
		stroke-width:3;
		stroke:black;
		fill:rgba(0,0,0,0);
	}
	svg.railroad-diagram text {
		eeefont:bold 14px sans; 
		font-family: sans;
		text-anchor:middle;
                fill: black; /* color of text */
	}
	svg.railroad-diagram .labelname {
		font-family: sans;
		text-anchor:middle;
		stroke-width: 0
                fill: red; /* color of text */
	}

	svg.railroad-diagram text.label{
		text-anchor:start;
	}
	svg.railroad-diagram text.comment{
		eeefont:italic 12px monospace;
		font-family: sans;
		font-style: italic;
	}
        svg.railroad-diagram .nterm { /* defines non-terminals */
		stroke-width:3;
		stroke:black; /* used for outline AND font, so without it the text looks OK but not the form...*/
		fill: rgb(181,232,247);
	}
        svg.railroad-diagram .term { /* defines terminals */
		stroke-width:3;
		stroke:black; /* used for outline AND font, so without it the text looks OK but not the form...*/
		fill: rgb(217,194,240);
	}

	svg.railroad-diagram rect.group-box {
		stroke: gray;
		stroke-dasharray: 10 5;
		fill: none;
	}

/* ]]> */
</style><g>
<path d="M20 21v20m10 -20v20m-10 -10h20"></path></g><g>
<path d="M40 31h0.0"></path><path d="M347.0 31h0.0"></path><path d="M40.0 31h20"></path><g>
<path d="M60.0 31h0.0"></path><path d="M327.0 31h0.0"></path><g class="terminal ">
<path d="M60.0 31h0.0"></path><path d="M148.0 31h0.0"></path><rect class="term" height="22" rx="10" ry="10" width="88.0" x="60.0" y="20"></rect><text x="104.0" y="35">'Lemma:'</text></g><path d="M148.0 31h10"></path><path d="M158.0 31h10"></path><g>
<path d="M168.0 31h0.0"></path><path d="M327.0 31h0.0"></path><path d="M168.0 31h10"></path><g>
<path d="M178.0 31h0.0"></path><path d="M317.0 31h0.0"></path><g class="non-terminal ">
<path d="M178.0 31h0.0"></path><path d="M209.0 31h0.0"></path><text class="comment" x="193.5" y="36">not</text></g><path d="M209.0 31h10"></path><path d="M219.0 31h10"></path><g class="terminal ">
<path d="M229.0 31h0.0"></path><path d="M317.0 31h0.0"></path><rect class="term" height="22" rx="10" ry="10" width="88.0" x="229.0" y="20"></rect><text x="273.0" y="35">&#91; 
	)&#38;|&#93;</text></g></g><path d="M317.0 31h10"></path><path d="M178.0 31a10 10 0 0 0 -10 10v0a10 10 0 0 0 10 10"></path><g>
<path d="M178.0 51h139.0"></path></g><path d="M317.0 51a10 10 0 0 0 10 -10v0a10 10 0 0 0 -10 -10"></path></g></g><path d="M327.0 31h20"></path></g><path d="M 347.0 31 h 20 m -10 -10 v 20 m 10 -20 v 20"></path></g></svg>