<svg class="railroad-diagram" height="72" viewBox="0 0 617.0 72" width="617.0" xmlns="http://www.w3.org/2000/svg" xmlns:xlink="http://www.w3.org/1999/xlink">
<g transform="translate(.5 .5)">
<style>/* <![CDATA[ */

	svg.railroad-diagram {
		background-color: rgba(255, 255, 255, 0); /* transparent white*/
	}
	svg.railroad-diagram path {
		stroke-width:3;
		stroke:black;
		fill: rgba(0,0,0,0);
	}
	svg.railroad-diagram text {
		/* font:bold 14px sans; */
		font-family: sans;
		text-anchor:middle;
    	fill: black; /* color of text */
	}
	svg.railroad-diagram .labelname{
		font-family: sans;
		text-anchor:middle;
		stroke-width: 0
        fill: red; /* color of text */
	}

	svg.railroad-diagram text.label{
		text-anchor:start;
	}

	svg.railroad-diagram text.comment{
		/* font:italic 12px monospace;*/
		font-family: sans;
		font-style: italic;
	}

    svg.railroad-diagram .nterm { /* defines non-terminals */
		stroke-width:3;
		stroke:black;
		fill: rgb(181,232,247);
	}

    svg.railroad-diagram .term { /* defines terminals */
		stroke-width:3;
		stroke:black;
		fill: rgb(217,194,240);
	}

	svg.railroad-diagram rect.group-box {
		stroke: gray;
		stroke-dasharray: 10 5;
		fill: none;
	}

/* ]]> */
</style><g>
<path d="M20 22v20m10 -20v20m-10 -10h20"></path></g><g>
<path d="M40 32h0.0"></path><path d="M577.0 32h0.0"></path><path d="M40.0 32h20"></path><g>
<path d="M60.0 32h0.0"></path><path d="M557.0 32h0.0"></path><g class="terminal ">
<path d="M60.0 32h0.0"></path><path d="M146.5 32h0.0"></path><rect class="term" height="24" width="86.5" x="60.0" y="21"></rect><text x="103.25" y="37">'Misc:'</text></g><path d="M146.5 32h10"></path><path d="M156.5 32h10"></path><g>
<path d="M166.5 32h0.0"></path><path d="M292.0 32h0.0"></path><path d="M166.5 32h10"></path><g class="terminal ">
<path d="M176.5 32h0.0"></path><path d="M282.0 32h0.0"></path><rect class="term" height="24" width="105.5" x="176.5" y="21"></rect><text x="229.25" y="37">&#91;A-Za-z&#95;&#93;</text></g><path d="M282.0 32h10"></path><path d="M176.5 32a10 10 0 0 0 -10 10v0a10 10 0 0 0 10 10"></path><g>
<path d="M176.5 52h105.5"></path></g><path d="M282.0 52a10 10 0 0 0 10 -10v0a10 10 0 0 0 -10 -10"></path></g><path d="M292.0 32h10"></path><path d="M302.0 32h10"></path><g class="terminal ">
<path d="M312.0 32h0.0"></path><path d="M370.0 32h0.0"></path><rect class="term" height="24" width="58.0" x="312.0" y="21"></rect><text x="341.0" y="37">&#91;:=&#93;</text></g><path d="M370.0 32h10"></path><path d="M380.0 32h10"></path><g>
<path d="M390.0 32h0.0"></path><path d="M557.0 32h0.0"></path><path d="M390.0 32h10"></path><g>
<path d="M400.0 32h0.0"></path><path d="M547.0 32h0.0"></path><g class="non-terminal ">
<path d="M400.0 32h0.0"></path><path d="M431.0 32h0.0"></path><text class="comment" x="415.5" y="37">not</text></g><path d="M431.0 32h10"></path><path d="M441.0 32h10"></path><g class="terminal ">
<path d="M451.0 32h0.0"></path><path d="M547.0 32h0.0"></path><rect class="term" height="24" width="96.0" x="451.0" y="21"></rect><text x="499.0" y="37">&#91;␣\n\t)&#38;|&#93;</text></g></g><path d="M547.0 32h10"></path><path d="M400.0 32a10 10 0 0 0 -10 10v0a10 10 0 0 0 10 10"></path><g>
<path d="M400.0 52h147.0"></path></g><path d="M547.0 52a10 10 0 0 0 10 -10v0a10 10 0 0 0 -10 -10"></path></g></g><path d="M557.0 32h20"></path></g><path d="M 577.0 32 h 20 m -10 -10 v 20 m 10 -20 v 20"></path></g></svg>