<svg class="railroad-diagram" height="80" viewBox="0 0 647.0 80" width="647.0" xmlns="http://www.w3.org/2000/svg" xmlns:xlink="http://www.w3.org/1999/xlink">
<g transform="translate(.5 .5)">
<style>/* <![CDATA[ */

	svg.railroad-diagram {
		background-color: rgba(255, 255, 255, 0); /* transparent white*/
	}
	svg.railroad-diagram path {
		stroke-width:3;
		stroke:black;
		fill: rgba(0,0,0,0);
	}
	svg.railroad-diagram text {
		/* font:bold 14px sans; */
		font-family: sans;
		text-anchor:middle;
    	fill: black; /* color of text */
	}
	svg.railroad-diagram .labelname{
		font-family: sans;
		text-anchor:middle;
		stroke-width: 0
        fill: red; /* color of text */
	}

	svg.railroad-diagram text.label{
		text-anchor:start;
	}

	svg.railroad-diagram text.comment{
		/* font:italic 12px monospace;*/
		font-family: sans;
		font-style: italic;
	}

    svg.railroad-diagram .nterm { /* defines non-terminals */
		stroke-width:3;
		stroke:black;
		fill: rgb(181,232,247);
	}

    svg.railroad-diagram .term { /* defines terminals */
		stroke-width:3;
		stroke:black;
		fill: rgb(217,194,240);
	}

	svg.railroad-diagram rect.group-box {
		stroke: gray;
		stroke-dasharray: 10 5;
		fill: none;
	}

/* ]]> */
</style><g>
<path d="M20 30v20m10 -20v20m-10 -10h20"></path></g><g>
<path d="M40 40h0.0"></path><path d="M607.0 40h0.0"></path><path d="M40.0 40h20"></path><g>
<path d="M60.0 40h0.0"></path><path d="M587.0 40h0.0"></path><g class="terminal ">
<path d="M60.0 40h0.0"></path><path d="M146.5 40h0.0"></path><rect class="term" height="24" width="86.5" x="60.0" y="29"></rect><text x="103.25" y="45">'Misc:'</text></g><path d="M146.5 40h10"></path><path d="M156.5 40h10"></path><g>
<path d="M166.5 40h0.0"></path><path d="M292.0 40h0.0"></path><path d="M166.5 40h10"></path><g class="terminal ">
<path d="M176.5 40h0.0"></path><path d="M282.0 40h0.0"></path><rect class="term" height="24" width="105.5" x="176.5" y="29"></rect><text x="229.25" y="45">&#91;A-Za-z&#95;&#93;</text></g><path d="M282.0 40h10"></path><path d="M176.5 40a10 10 0 0 0 -10 10v0a10 10 0 0 0 10 10"></path><g>
<path d="M176.5 60h105.5"></path></g><path d="M282.0 60a10 10 0 0 0 10 -10v0a10 10 0 0 0 -10 -10"></path></g><path d="M292.0 40h10"></path><path d="M302.0 40h10"></path><g class="terminal ">
<path d="M312.0 40h0.0"></path><path d="M370.0 40h0.0"></path><rect class="term" height="24" width="58.0" x="312.0" y="29"></rect><text x="341.0" y="45">&#91;:=&#93;</text></g><path d="M370.0 40h10"></path><g>
<path d="M380.0 40h0.0"></path><path d="M587.0 40h0.0"></path><path d="M380.0 40a10 10 0 0 0 10 -10v0a10 10 0 0 1 10 -10"></path><g>
<path d="M400.0 20h167.0"></path></g><path d="M567.0 20a10 10 0 0 1 10 10v0a10 10 0 0 0 10 10"></path><path d="M380.0 40h20"></path><g>
<path d="M400.0 40h0.0"></path><path d="M567.0 40h0.0"></path><path d="M400.0 40h10"></path><g>
<path d="M410.0 40h0.0"></path><path d="M557.0 40h0.0"></path><g class="non-terminal ">
<path d="M410.0 40h0.0"></path><path d="M441.0 40h0.0"></path><text class="comment" x="425.5" y="45">not</text></g><path d="M441.0 40h10"></path><path d="M451.0 40h10"></path><g class="terminal ">
<path d="M461.0 40h0.0"></path><path d="M557.0 40h0.0"></path><rect class="term" height="24" width="96.0" x="461.0" y="29"></rect><text x="509.0" y="45">&#91;␣\n\t)&#38;|&#93;</text></g></g><path d="M557.0 40h10"></path><path d="M410.0 40a10 10 0 0 0 -10 10v0a10 10 0 0 0 10 10"></path><g>
<path d="M410.0 60h147.0"></path></g><path d="M557.0 60a10 10 0 0 0 10 -10v0a10 10 0 0 0 -10 -10"></path></g><path d="M567.0 40h20"></path></g></g><path d="M587.0 40h20"></path></g><path d="M 607.0 40 h 20 m -10 -10 v 20 m 10 -20 v 20"></path></g></svg>