<svg class="railroad-diagram" height="96" viewBox="0 0 187.5 96" width="187.5" xmlns="http://www.w3.org/2000/svg" xmlns:xlink="http://www.w3.org/1999/xlink">
<g transform="translate(.5 .5)">
<style>/* <![CDATA[ */

	svg.railroad-diagram {
		background-color: rgba(255, 255, 255, 0); /* transparent white*/
	}
	svg.railroad-diagram path {
		stroke-width:3;
		stroke:black;
		fill: rgba(0,0,0,0);
	}
	svg.railroad-diagram text {
		/* font:bold 14px sans; */
		font-family: sans;
		text-anchor:middle;
    	fill: black; /* color of text */
	}
	svg.railroad-diagram .labelname{
		font-family: sans;
		text-anchor:middle;
		stroke-width: 0
        fill: red; /* color of text */
	}

	svg.railroad-diagram text.label{
		text-anchor:start;
	}

	svg.railroad-diagram text.comment{
		/* font:italic 12px monospace;*/
		font-family: sans;
		font-style: italic;
	}

    svg.railroad-diagram .nterm { /* defines non-terminals */
		stroke-width:3;
		stroke:black;
		fill: rgb(181,232,247);
	}

    svg.railroad-diagram .term { /* defines terminals */
		stroke-width:3;
		stroke:black;
		fill: rgb(217,194,240);
	}

	svg.railroad-diagram rect.group-box {
		stroke: gray;
		stroke-dasharray: 10 5;
		fill: none;
	}

/* ]]> */
</style><g>
<path d="M20 22v20m10 -20v20m-10 -10h20"></path></g><g>
<path d="M40 32h0.0"></path><path d="M147.5 32h0.0"></path><path d="M40.0 32h20"></path><g>
<path d="M60.0 32h0.0"></path><path d="M127.5 32h0.0"></path><g class="terminal ">
<path d="M60.0 32h0.0"></path><path d="M127.5 32h0.0"></path><rect class="term" height="24" width="67.5" x="60.0" y="21"></rect><text x="93.75" y="37">'not'</text></g></g><path d="M127.5 32h20"></path><path d="M40.0 32a10 10 0 0 1 10 10v12a10 10 0 0 0 10 10"></path><g>
<path d="M60.0 64h9.5"></path><path d="M118.0 64h9.5"></path><g class="terminal ">
<path d="M69.5 64h0.0"></path><path d="M118.0 64h0.0"></path><rect class="term" height="24" width="48.5" x="69.5" y="53"></rect><text x="93.75" y="69">'!'</text></g></g><path d="M127.5 64a10 10 0 0 0 10 -10v-12a10 10 0 0 1 10 -10"></path></g><path d="M 147.5 32 h 20 m -10 -10 v 20 m 10 -20 v 20"></path></g></svg>