<svg class="railroad-diagram" height="80" viewBox="0 0 913.5 80" width="913.5" xmlns="http://www.w3.org/2000/svg" xmlns:xlink="http://www.w3.org/1999/xlink">
<g transform="translate(.5 .5)">
<style>/* <![CDATA[ */

	svg.railroad-diagram {
		background-color: rgba(255, 255, 255, 0); /* transparent white*/
	}
	svg.railroad-diagram path {
		stroke-width:3;
		stroke:black;
		fill: rgba(0,0,0,0);
	}
	svg.railroad-diagram text {
		/* font:bold 14px sans; */
		font-family: sans;
		text-anchor:middle;
    	fill: black; /* color of text */
	}
	svg.railroad-diagram .labelname{
		font-family: sans;
		text-anchor:middle;
		stroke-width: 0
        fill: red; /* color of text */
	}

	svg.railroad-diagram text.label{
		text-anchor:start;
	}

	svg.railroad-diagram text.comment{
		/* font:italic 12px monospace;*/
		font-family: sans;
		font-style: italic;
	}

    svg.railroad-diagram .nterm { /* defines non-terminals */
		stroke-width:3;
		stroke:black;
		fill: rgb(181,232,247);
	}

    svg.railroad-diagram .term { /* defines terminals */
		stroke-width:3;
		stroke:black;
		fill: rgb(217,194,240);
	}

	svg.railroad-diagram rect.group-box {
		stroke: gray;
		stroke-dasharray: 10 5;
		fill: none;
	}

/* ]]> */
</style><g>
<path d="M20 30v20m10 -20v20m-10 -10h20"></path></g><g>
<path d="M40 40h0.0"></path><path d="M873.5 40h0.0"></path><path d="M40.0 40h20"></path><g>
<path d="M60.0 40h0.0"></path><path d="M853.5 40h0.0"></path><g class="terminal ">
<path d="M60.0 40h0.0"></path><path d="M137.0 40h0.0"></path><rect class="term" height="24" width="77.0" x="60.0" y="29"></rect><text x="98.5" y="45">'EUD:'</text></g><path d="M137.0 40h10"></path><g>
<path d="M147.0 40h0.0"></path><path d="M352.5 40h0.0"></path><path d="M147.0 40h20"></path><g>
<path d="M167.0 40h0.0"></path><path d="M332.5 40h0.0"></path><g class="terminal ">
<path d="M167.0 40h0.0"></path><path d="M225.0 40h0.0"></path><rect class="term" height="24" width="58.0" x="167.0" y="29"></rect><text x="196.0" y="45">&#91;+-&#93;</text></g><path d="M225.0 40h10"></path><path d="M235.0 40h10"></path><g>
<path d="M245.0 40h0.0"></path><path d="M332.5 40h0.0"></path><path d="M245.0 40h10"></path><g class="terminal ">
<path d="M255.0 40h0.0"></path><path d="M322.5 40h0.0"></path><rect class="term" height="24" width="67.5" x="255.0" y="29"></rect><text x="288.75" y="45">&#91;0-9&#93;</text></g><path d="M322.5 40h10"></path><path d="M255.0 40a10 10 0 0 0 -10 10v0a10 10 0 0 0 10 10"></path><g>
<path d="M255.0 60h67.5"></path></g><path d="M322.5 60a10 10 0 0 0 10 -10v0a10 10 0 0 0 -10 -10"></path></g></g><path d="M332.5 40h20"></path></g><path d="M352.5 40h10"></path><g class="terminal ">
<path d="M362.5 40h0.0"></path><path d="M420.5 40h0.0"></path><rect class="term" height="24" width="58.0" x="362.5" y="29"></rect><text x="391.5" y="45">&#91;:=&#93;</text></g><path d="M420.5 40h10"></path><path d="M430.5 40h10"></path><g>
<path d="M440.5 40h0.0"></path><path d="M528.0 40h0.0"></path><path d="M440.5 40h10"></path><g class="terminal ">
<path d="M450.5 40h0.0"></path><path d="M518.0 40h0.0"></path><rect class="term" height="24" width="67.5" x="450.5" y="29"></rect><text x="484.25" y="45">&#91;a-z&#93;</text></g><path d="M518.0 40h10"></path><path d="M450.5 40a10 10 0 0 0 -10 10v0a10 10 0 0 0 10 10"></path><g>
<path d="M450.5 60h67.5"></path></g><path d="M518.0 60a10 10 0 0 0 10 -10v0a10 10 0 0 0 -10 -10"></path></g><path d="M528.0 40h10"></path><g>
<path d="M538.0 40h0.0"></path><path d="M853.5 40h0.0"></path><path d="M538.0 40a10 10 0 0 0 10 -10v0a10 10 0 0 1 10 -10"></path><g>
<path d="M558.0 20h275.5"></path></g><path d="M833.5 20a10 10 0 0 1 10 10v0a10 10 0 0 0 10 10"></path><path d="M538.0 40h20"></path><g>
<path d="M558.0 40h0.0"></path><path d="M833.5 40h0.0"></path><path d="M558.0 40h20"></path><g>
<path d="M578.0 40h0.0"></path><path d="M813.5 40h0.0"></path><g class="terminal ">
<path d="M578.0 40h0.0"></path><path d="M626.5 40h0.0"></path><rect class="term" height="24" width="48.5" x="578.0" y="29"></rect><text x="602.25" y="45">':'</text></g><path d="M626.5 40h10"></path><path d="M636.5 40h10"></path><g>
<path d="M646.5 40h0.0"></path><path d="M813.5 40h0.0"></path><path d="M646.5 40h10"></path><g>
<path d="M656.5 40h0.0"></path><path d="M803.5 40h0.0"></path><g class="non-terminal ">
<path d="M656.5 40h0.0"></path><path d="M687.5 40h0.0"></path><text class="comment" x="672.0" y="45">not</text></g><path d="M687.5 40h10"></path><path d="M697.5 40h10"></path><g class="terminal ">
<path d="M707.5 40h0.0"></path><path d="M803.5 40h0.0"></path><rect class="term" height="24" width="96.0" x="707.5" y="29"></rect><text x="755.5" y="45">&#91;␣\n\t)&#38;|&#93;</text></g></g><path d="M803.5 40h10"></path><path d="M656.5 40a10 10 0 0 0 -10 10v0a10 10 0 0 0 10 10"></path><g>
<path d="M656.5 60h147.0"></path></g><path d="M803.5 60a10 10 0 0 0 10 -10v0a10 10 0 0 0 -10 -10"></path></g></g><path d="M813.5 40h20"></path></g><path d="M833.5 40h20"></path></g></g><path d="M853.5 40h20"></path></g><path d="M 873.5 40 h 20 m -10 -10 v 20 m 10 -20 v 20"></path></g></svg>